<svg xmlns="http://www.w3.org/2000/svg" width="84" height="84" viewBox="0 0 84 84">
  <g id="Group_417" data-name="Group 417" transform="translate(-0.3)">
    <g id="Group_411" data-name="Group 411" transform="translate(13.745 8.4)">
      <path id="Path_265" data-name="Path 265" d="M27.12,33.641A16.82,16.82,0,1,0,10.3,16.82,16.833,16.833,0,0,0,27.12,33.641Zm0-31.321a14.5,14.5,0,1,1-14.5,14.5A14.506,14.506,0,0,1,27.12,2.32Z" transform="translate(1.648)" fill="#39d4cb"/>
      <path id="Path_266" data-name="Path 266" d="M37.237,32.9H20.417A20.447,20.447,0,0,0,0,53.317a8.764,8.764,0,0,0,8.7,8.7H48.953a8.764,8.764,0,0,0,8.7-8.7A20.447,20.447,0,0,0,37.237,32.9ZM48.953,59.7H8.7a6.437,6.437,0,0,1-6.38-6.38,18.12,18.12,0,0,1,18.1-18.1h16.82a18.12,18.12,0,0,1,18.1,18.1A6.437,6.437,0,0,1,48.953,59.7Z" transform="translate(0 5.265)" fill="#39d4cb"/>
    </g>
    <rect id="Rectangle_158" data-name="Rectangle 158" width="84" height="84" transform="translate(0.3)" fill="none"/>
  </g>
</svg>
