<svg xmlns="http://www.w3.org/2000/svg" xmlns:xlink="http://www.w3.org/1999/xlink" width="180" height="196" viewBox="0 0 180 196">
  <defs>
    <linearGradient id="linear-gradient" x1="0.497" y1="0.395" x2="0.634" y2="-1.369" gradientUnits="objectBoundingBox">
      <stop offset="0" stop-color="#15133b"/>
      <stop offset="1" stop-color="#2ad8c8"/>
    </linearGradient>
    <linearGradient id="linear-gradient-2" x1="0.499" y1="0.524" x2="0.523" y2="-0.215" gradientUnits="objectBoundingBox">
      <stop offset="0" stop-color="#fff"/>
      <stop offset="1" stop-color="#2ad8c8"/>
    </linearGradient>
    <linearGradient id="linear-gradient-3" x1="-0.626" y1="-0.626" x2="0.709" y2="0.709" gradientUnits="objectBoundingBox">
      <stop offset="0" stop-color="#f53b89"/>
      <stop offset="0.491" stop-color="#f2596b" stop-opacity="0.478"/>
      <stop offset="0.842" stop-color="#f06d57" stop-opacity="0.133"/>
      <stop offset="1" stop-color="#f07550" stop-opacity="0"/>
    </linearGradient>
    <linearGradient id="linear-gradient-4" x1="-0.977" y1="-0.519" x2="-0.121" y2="0.338" gradientUnits="objectBoundingBox">
      <stop offset="0" stop-color="#9a66ff" stop-opacity="0"/>
      <stop offset="1" stop-color="#ea4eff"/>
    </linearGradient>
    <linearGradient id="linear-gradient-5" x1="1.154" y1="1.336" x2="-0.053" y2="-0.207" gradientUnits="objectBoundingBox">
      <stop offset="0" stop-color="#fff"/>
      <stop offset="1" stop-color="#7a92d6"/>
    </linearGradient>
  </defs>
  <g id="Group_462" data-name="Group 462" transform="translate(-77 -1890.75)">
    <g id="Group_462-2" data-name="Group 462">
      <path id="Path_283" data-name="Path 283" d="M257,1915.75v146a24.99,24.99,0,0,1-19.36,24.35,24.389,24.389,0,0,1-5.64.65H77v-196H232A25,25,0,0,1,257,1915.75Z" fill="#15133b"/>
    </g>
    <path id="Path_284" data-name="Path 284" d="M257,2039.34v22.41a25,25,0,0,1-25,25H77v-79.61H207.97a40.663,40.663,0,0,1,28.74,11.9Z" fill="url(#linear-gradient)"/>
    <g id="Group_463" data-name="Group 463">
      <path id="Path_285" data-name="Path 285" d="M257,2038.64v.7l-.35.35-.65-.65-19.64-19.65a39.91,39.91,0,0,0-28.39-11.75H77v-1H207.97a40.887,40.887,0,0,1,29.09,12.05L256,2037.64Z" fill="url(#linear-gradient-2)"/>
    </g>
    <circle id="Ellipse_45" data-name="Ellipse 45" cx="38" cy="38" r="38" transform="translate(89 1915)" fill="url(#linear-gradient-3)"/>
    <circle id="Ellipse_46" data-name="Ellipse 46" cx="19" cy="19" r="19" transform="translate(207.059 1957.507)" fill="url(#linear-gradient-4)"/>
    <g id="Group_464" data-name="Group 464">
      <path id="Path_286" data-name="Path 286" d="M196,2039H133.714c-4.463,0-6.7-12.1-3.542-15.4l12.554-6.656h44.259l12.989,7.756C203.13,2028,200.46,2039,196,2039Z" fill="#2a52c8"/>
      <path id="Path_287" data-name="Path 287" d="M196,2032.4H133.714c-4.463,0-6.7-5.639-3.542-8.937l12.554-13.119h44.259l12.554,13.119C202.7,2026.761,200.46,2032.4,196,2032.4Z" fill="#2242a1"/>
      <path id="Path_288" data-name="Path 288" d="M216.17,1955.62v49.59a15.659,15.659,0,0,1-15.62,15.61h-72.1a15.659,15.659,0,0,1-15.62-15.61v-49.59A15.667,15.667,0,0,1,128.45,1940h72.1A15.667,15.667,0,0,1,216.17,1955.62Z" fill="#2a52c8"/>
      <rect id="Rectangle_168" data-name="Rectangle 168" width="95.346" height="74.578" rx="13.509" transform="translate(116.827 1943.123)" fill="url(#linear-gradient-5)"/>
    </g>
    <g id="Group_465" data-name="Group 465">
      <rect id="Rectangle_169" data-name="Rectangle 169" width="43" height="21.043" rx="3.946" transform="translate(124 1952.957)" fill="#fff" opacity="0.2"/>
      <rect id="Rectangle_170" data-name="Rectangle 170" width="83" height="10.043" rx="3.788" transform="translate(124 1980.957)" fill="#fff" opacity="0.2"/>
      <rect id="Rectangle_171" data-name="Rectangle 171" width="83" height="10.043" rx="3.788" transform="translate(124 1995.957)" fill="#fff" opacity="0.2"/>
    </g>
    <g id="Group_472" data-name="Group 472">
      <path id="Path_289" data-name="Path 289" d="M214.783,1960.828v30.559h-54.6a4.693,4.693,0,0,1-4.679-4.668V1965.5a4.693,4.693,0,0,1,4.679-4.668Z" fill="#a09ebd"/>
      <rect id="Rectangle_172" data-name="Rectangle 172" width="70.693" height="30.558" rx="4.673" transform="translate(159.717 1956.613)" fill="#fff"/>
      <g id="Group_471" data-name="Group 471">
        <g id="Group_468" data-name="Group 468">
          <g id="Group_466" data-name="Group 466">
            <path id="Path_290" data-name="Path 290" d="M178.207,1978.2l3.129-4.174a3.06,3.06,0,0,0,.424-.744,2,2,0,0,0,.151-.718v-.013a1.089,1.089,0,0,0-.315-.834,1.26,1.26,0,0,0-.895-.3,1.232,1.232,0,0,0-.889.324,1.469,1.469,0,0,0-.414.917v.006h-1.3v-.006a3.344,3.344,0,0,1,.454-1.318,2.305,2.305,0,0,1,.886-.834,2.635,2.635,0,0,1,1.253-.287,3.127,3.127,0,0,1,1.371.275,1.926,1.926,0,0,1,.864.8,2.537,2.537,0,0,1,.3,1.267v.005a2.786,2.786,0,0,1-.2.995,4.262,4.262,0,0,1-.549,1l-2.6,3.531h3.4v1.2h-5.062Z"/>
            <path id="Path_291" data-name="Path 291" d="M185.526,1978.711a2.584,2.584,0,0,1-.651-1.877v-4.081a2.577,2.577,0,0,1,.654-1.881,3.062,3.062,0,0,1,3.819,0,2.583,2.583,0,0,1,.651,1.884v4.081a2.31,2.31,0,0,1-2.562,2.55A2.542,2.542,0,0,1,185.526,1978.711Zm2.9-.874a1.439,1.439,0,0,0,.318-1v-4.081a1.447,1.447,0,0,0-.315-1,1.572,1.572,0,0,0-1.975,0,1.447,1.447,0,0,0-.315,1v4.081a1.439,1.439,0,0,0,.318,1,1.563,1.563,0,0,0,1.969,0Z"/>
            <path id="Path_292" data-name="Path 292" d="M191.327,1977.97h1.321v2l-1.321,1.371Z"/>
            <path id="Path_293" data-name="Path 293" d="M195.645,1979.118a2.18,2.18,0,0,1-.858-.771,3.056,3.056,0,0,1-.441-1.217v-.006H195.6v.006a1.164,1.164,0,0,0,.4.768,1.276,1.276,0,0,0,.853.276,1.142,1.142,0,0,0,.935-.4,1.76,1.76,0,0,0,.33-1.14v-.753a1.746,1.746,0,0,0-.33-1.133,1.142,1.142,0,0,0-.935-.405,1.19,1.19,0,0,0-.63.185,1.781,1.781,0,0,0-.532.519h-1.148v-4.73h4.575v1.2H195.8v2.018a1.782,1.782,0,0,1,.525-.3,1.721,1.721,0,0,1,.592-.1,2.608,2.608,0,0,1,1.331.321,2.057,2.057,0,0,1,.839.939,3.5,3.5,0,0,1,.287,1.488v.753a3.41,3.41,0,0,1-.3,1.488,2.1,2.1,0,0,1-.864.942,2.723,2.723,0,0,1-1.364.324A2.651,2.651,0,0,1,195.645,1979.118Z"/>
            <path id="Path_294" data-name="Path 294" d="M202.428,1979.075a2.252,2.252,0,0,1-.954-.874,2.516,2.516,0,0,1-.337-1.311v-.149a2.521,2.521,0,0,1,.337-1.265,2.25,2.25,0,0,1,.9-.9,1.969,1.969,0,0,1-.763-.75,2.02,2.02,0,0,1-.287-1.034v-.216a2.389,2.389,0,0,1,.315-1.238,2.128,2.128,0,0,1,.889-.827,3.173,3.173,0,0,1,2.668,0,2.122,2.122,0,0,1,.889.827,2.4,2.4,0,0,1,.314,1.238v.216a1.985,1.985,0,0,1-.293,1.043,1.959,1.959,0,0,1-.774.741,2.325,2.325,0,0,1,.91.9,2.461,2.461,0,0,1,.343,1.262v.149a2.516,2.516,0,0,1-.336,1.311,2.26,2.26,0,0,1-.955.874,3.472,3.472,0,0,1-2.864,0Zm2.2-1.074a1.244,1.244,0,0,0,.515-.485,1.393,1.393,0,0,0,.183-.719v-.087a1.411,1.411,0,0,0-.183-.726,1.248,1.248,0,0,0-.515-.484,1.809,1.809,0,0,0-1.544,0,1.237,1.237,0,0,0-.515.488,1.419,1.419,0,0,0-.182.729v.092a1.376,1.376,0,0,0,.182.716,1.231,1.231,0,0,0,.515.479,1.686,1.686,0,0,0,.772.17A1.657,1.657,0,0,0,204.632,1978Zm-.105-4.048a1.127,1.127,0,0,0,.451-.466,1.478,1.478,0,0,0,.16-.7v-.087a1.365,1.365,0,0,0-.16-.667,1.109,1.109,0,0,0-.451-.447,1.5,1.5,0,0,0-1.334,0,1.107,1.107,0,0,0-.45.447,1.357,1.357,0,0,0-.161.673v.093a1.418,1.418,0,0,0,.161.688,1.129,1.129,0,0,0,.45.463,1.439,1.439,0,0,0,1.334,0Z"/>
            <path id="Path_295" data-name="Path 295" d="M211.522,1974.833l-.006.223a.929.929,0,0,1-.466.417,1.886,1.886,0,0,1-.738.132,1.974,1.974,0,0,1-1.13-.328,2.125,2.125,0,0,1-.756-.923,3.32,3.32,0,0,1-.269-1.379v-.006a3.448,3.448,0,0,1,.294-1.489,2.065,2.065,0,0,1,.858-.938,2.7,2.7,0,0,1,1.355-.321,2.641,2.641,0,0,1,1.352.327,2.11,2.11,0,0,1,.856.951,3.511,3.511,0,0,1,.293,1.5v.007a4.625,4.625,0,0,1-.124,1.027,6.336,6.336,0,0,1-.352,1.084l-.074.164c-.025.056-.052.11-.08.163l-1.914,3.847h-1.358Zm.059-.777a1.758,1.758,0,0,0,.324-1.13v-.007a1.671,1.671,0,0,0-.324-1.1,1.285,1.285,0,0,0-1.84,0,1.683,1.683,0,0,0-.324,1.106v.006a1.745,1.745,0,0,0,.324,1.127,1.259,1.259,0,0,0,1.84,0Z"/>
          </g>
          <g id="Group_467" data-name="Group 467">
            <path id="Path_296" data-name="Path 296" d="M167.866,1970.313h6.027v1.137h-6.027Zm0,4.416h1.951a1.54,1.54,0,0,0,.8-.2,1.388,1.388,0,0,0,.537-.577,2.051,2.051,0,0,0,0-1.722,1.371,1.371,0,0,0-.534-.578,1.558,1.558,0,0,0-.8-.2h-1.951v-.888h2.272a2.491,2.491,0,0,1,1.3.336,2.264,2.264,0,0,1,.871.954,3.147,3.147,0,0,1,.309,1.426,2.539,2.539,0,0,1-.365,1.362,2.416,2.416,0,0,1-1.025.91,3.433,3.433,0,0,1-1.525.321h-1.84Zm0-2.23h6.027v1.124h-6.027Zm1.889,3.088,1.254-.284,2.3,3.988h-1.494Z"/>
          </g>
        </g>
        <g id="Group_470" data-name="Group 470">
          <g id="Group_469" data-name="Group 469">
            <path id="Path_297" data-name="Path 297" d="M169.149,1964.671v1.28h-.442v-1.28l-.959-1.869h.491l.689,1.421.689-1.421h.491Z" fill="#7786ad"/>
            <path id="Path_298" data-name="Path 298" d="M170.852,1965.84a1,1,0,0,1-.389-.407,1.3,1.3,0,0,1-.138-.611v-.891a1.3,1.3,0,0,1,.138-.611.986.986,0,0,1,.389-.407,1.25,1.25,0,0,1,1.161,0,.992.992,0,0,1,.389.407,1.31,1.31,0,0,1,.137.611v.891a1.31,1.31,0,0,1-.137.611,1,1,0,0,1-.389.407,1.249,1.249,0,0,1-1.161,0Zm.923-.379a.59.59,0,0,0,.23-.249.814.814,0,0,0,.081-.374v-.923a.811.811,0,0,0-.081-.374.589.589,0,0,0-.23-.249.712.712,0,0,0-.686,0,.6.6,0,0,0-.23.249.824.824,0,0,0-.081.374v.923a.827.827,0,0,0,.081.374.6.6,0,0,0,.23.249.72.72,0,0,0,.686,0Z" fill="#7786ad"/>
            <path id="Path_299" data-name="Path 299" d="M173.632,1965.846a.89.89,0,0,1-.378-.4,1.409,1.409,0,0,1-.13-.633v-2.01h.442v2.025a.757.757,0,0,0,.173.532.732.732,0,0,0,.982,0,.748.748,0,0,0,.175-.532V1962.8h.442v2.01a1.423,1.423,0,0,1-.13.633.9.9,0,0,1-.379.4,1.223,1.223,0,0,1-.6.137A1.208,1.208,0,0,1,173.632,1965.846Z" fill="#7786ad"/>
            <path id="Path_300" data-name="Path 300" d="M176.031,1962.8h.441v3.151h-.441Zm.192,1.4H177.3a.41.41,0,0,0,.223-.061.393.393,0,0,0,.15-.172.638.638,0,0,0,0-.514.4.4,0,0,0-.149-.172.414.414,0,0,0-.224-.06h-1.075v-.42h1.057a.99.99,0,0,1,.48.112.8.8,0,0,1,.321.319,1.063,1.063,0,0,1,0,.956.8.8,0,0,1-.322.32.994.994,0,0,1-.478.112h-1.057Zm.858.322.44-.1.806,1.529H177.8Z" fill="#7786ad"/>
            <path id="Path_301" data-name="Path 301" d="M180.114,1962.8h.44v3.149h-.44Zm.26,2.74h.854a.763.763,0,0,0,.489-.128.442.442,0,0,0,.154-.359v-.007a.621.621,0,0,0-.056-.276.373.373,0,0,0-.174-.175.649.649,0,0,0-.305-.063h-.962v-.4h.962a.525.525,0,0,0,.369-.115.441.441,0,0,0,.125-.34.437.437,0,0,0-.139-.353.631.631,0,0,0-.416-.117h-.9v-.409h.981a1.129,1.129,0,0,1,.511.1.7.7,0,0,1,.308.295.953.953,0,0,1,.1.455.735.735,0,0,1-.063.3.626.626,0,0,1-.192.243.714.714,0,0,1-.319.136.681.681,0,0,1,.329.135.7.7,0,0,1,.212.267.828.828,0,0,1,.074.347v.007a.884.884,0,0,1-.113.45.759.759,0,0,1-.323.3,1.064,1.064,0,0,1-.489.106h-1.018Z" fill="#7786ad"/>
            <path id="Path_302" data-name="Path 302" d="M183.77,1962.8h.377l1.161,3.149h-.476l-.874-2.541-.873,2.541h-.476Zm-.626,2.038H184.8v.42h-1.657Z" fill="#7786ad"/>
            <path id="Path_303" data-name="Path 303" d="M185.785,1962.8h.442v3.149h-.442Zm.221,2.729h1.8v.42h-1.8Z" fill="#7786ad"/>
            <path id="Path_304" data-name="Path 304" d="M189.229,1962.8h.376l1.162,3.149h-.477l-.873-2.541-.873,2.541h-.477Zm-.626,2.038h1.657v.42H188.6Z" fill="#7786ad"/>
            <path id="Path_305" data-name="Path 305" d="M191.244,1962.8h.4l1.54,2.434-.052.057V1962.8h.438v3.147h-.405l-1.536-2.4.052-.056v2.454h-.437Z" fill="#7786ad"/>
            <path id="Path_306" data-name="Path 306" d="M194.8,1965.839a.993.993,0,0,1-.384-.412,1.335,1.335,0,0,1-.137-.617v-.865a1.335,1.335,0,0,1,.137-.617,1,1,0,0,1,.384-.413,1.119,1.119,0,0,1,.575-.145,1.08,1.08,0,0,1,.5.115,1.045,1.045,0,0,1,.381.328,1.228,1.228,0,0,1,.207.492h-.453a.718.718,0,0,0-.138-.264.67.67,0,0,0-.226-.178.635.635,0,0,0-.607.03.623.623,0,0,0-.225.262.9.9,0,0,0-.08.39v.865a.9.9,0,0,0,.08.389.617.617,0,0,0,.225.262.632.632,0,0,0,.338.092.648.648,0,0,0,.27-.059.638.638,0,0,0,.225-.173.706.706,0,0,0,.138-.273h.453a1.235,1.235,0,0,1-.208.492,1.056,1.056,0,0,1-.382.328,1.076,1.076,0,0,1-.5.115A1.118,1.118,0,0,1,194.8,1965.839Z" fill="#7786ad"/>
            <path id="Path_307" data-name="Path 307" d="M197.051,1962.8h.441v3.149h-.441Zm.214,0h1.809v.42h-1.809Zm0,1.375h1.57v.421h-1.57Zm0,1.354h1.809v.42h-1.809Z" fill="#7786ad"/>
          </g>
        </g>
      </g>
    </g>
  </g>
</svg>
