<svg xmlns="http://www.w3.org/2000/svg" viewBox="0 0 78.69 12.29"><defs><style>.cls-1{fill:#ffffff;}.cls-2{fill:#1ea166;}.cls-3{fill:#dbca35;}</style></defs><g id="Layer_2" data-name="Layer 2"><g id="Layer_1-2" data-name="Layer 1"><path class="cls-1" d="M27.78,4.18c0,2.41-1.84,4-4.72,4H21.15l-.49,2.49H18l1.9-9.54h4C26.39,1.11,27.78,2.24,27.78,4.18Zm-2.73.23c0-.8-.56-1.17-1.5-1.17H22.14L21.58,6h1.6C24.37,6,25.05,5.46,25.05,4.41Z"/><path class="cls-1" d="M34.26,8.8H30.2l-1.1,1.85H26.25l6.12-9.54H35l2.31,9.54H34.64Zm-.41-2-.64-3.09L31.39,6.81Z"/><path class="cls-1" d="M43.28,7.27l-.67,3.38h-2.7L40.6,7.2,38.17,1.11h2.71l1.5,3.8,3-3.8h2.74Z"/><path class="cls-1" d="M53.26,5.5l3.21,5.15h-3l-2.2-3.43L50,8.34l-.46,2.31H46.9l1.91-9.54h2.66L50.69,5,55,1.11h3.17Z"/><path class="cls-1" d="M57.66,7.41a6.22,6.22,0,0,1,.11-1l1.07-5.29h2.69L60.48,6.36a4.17,4.17,0,0,0-.08.75c0,1,.56,1.5,1.58,1.5s1.77-.64,2.1-2.25l1-5.25h2.66L66.71,6.52c-.57,2.85-2.25,4.32-5,4.32C59.16,10.84,57.66,9.52,57.66,7.41Z"/><path class="cls-1" d="M78.69,1.11l-1.91,9.54H74.56L71.41,5.42l-1,5.23H67.72l1.91-9.54h2.22L75,6.33l1-5.22Z"/><polygon class="cls-2" points="9.46 0 8.84 2.84 4.86 2.84 3.44 9.46 0 9.46 2.02 0 9.46 0"/><polygon class="cls-3" points="12.29 2.84 10.26 12.29 2.84 12.29 3.44 9.46 7.42 9.46 8.84 2.84 12.29 2.84"/></g></g></svg>