<svg xmlns="http://www.w3.org/2000/svg" xmlns:xlink="http://www.w3.org/1999/xlink" width="180" height="196" viewBox="0 0 180 196">
  <defs>
    <clipPath id="clip-path">
      <path id="SVGID" d="M0,0H155a25,25,0,0,1,25,25V171a25,25,0,0,1-25,25H0a0,0,0,0,1,0,0V0A0,0,0,0,1,0,0Z" transform="translate(77 1659.75)" fill="none"/>
    </clipPath>
    <linearGradient id="linear-gradient" x1="-0.037" y1="0.793" x2="1.898" y2="-0.614" gradientUnits="objectBoundingBox">
      <stop offset="0" stop-color="#15133b"/>
      <stop offset="1" stop-color="#2ad8c8"/>
    </linearGradient>
  </defs>
  <g id="Group_461" data-name="Group 461" transform="translate(-77 -1659.75)">
    <g id="Group_460" data-name="Group 460" clip-path="url(#clip-path)">
      <path id="Rectangle_166" data-name="Rectangle 166" d="M0,0H155a25,25,0,0,1,25,25V171a25,25,0,0,1-25,25H0a0,0,0,0,1,0,0V0A0,0,0,0,1,0,0Z" transform="translate(77 1659.75)" fill="#15133b"/>
      <g id="Group_447" data-name="Group 447" opacity="0.3">
        <g id="Group_446" data-name="Group 446">
          <path id="Path_273" data-name="Path 273" d="M239.06,1764.75H239c-1.3,0-2.614-.042-3.911-.125a.25.25,0,0,1-.233-.265.231.231,0,0,1,.266-.233c1.285.081,2.59.123,3.878.123a.278.278,0,0,1,.28.25A.226.226,0,0,1,239.06,1764.75Zm3.956-.131a.25.25,0,0,1-.016-.5c1.3-.085,2.618-.214,3.92-.386a.254.254,0,0,1,.281.216.249.249,0,0,1-.215.28c-1.314.173-2.644.3-3.954.388Zm-11.849-.371-.033,0c-1.316-.17-2.635-.385-3.921-.639a.25.25,0,0,1-.2-.294.256.256,0,0,1,.294-.2c1.275.251,2.583.464,3.889.633a.25.25,0,0,1-.032.5Zm19.689-.659a.25.25,0,0,1-.048-.495c1.286-.256,2.578-.558,3.838-.9a.25.25,0,0,1,.129.483c-1.271.34-2.572.644-3.869.9A.278.278,0,0,1,250.856,1763.589Zm-27.45-.868a.236.236,0,0,1-.064-.009c-1.267-.337-2.547-.723-3.8-1.147a.249.249,0,0,1-.157-.317.252.252,0,0,1,.317-.157c1.247.421,2.516.8,3.773,1.138a.25.25,0,0,1-.065.492Zm35.09-1.182a.249.249,0,0,1-.08-.486c1.225-.415,2.463-.882,3.681-1.388a.249.249,0,1,1,.191.461c-1.227.511-2.476.981-3.712,1.4A.225.225,0,0,1,258.5,1761.539Zm-42.589-1.352a.248.248,0,0,1-.1-.019c-1.217-.5-2.436-1.055-3.624-1.64a.25.25,0,0,1,.22-.449c1.178.58,2.388,1.128,3.6,1.626a.251.251,0,0,1-.1.482Zm49.884-1.678a.25.25,0,0,1-.111-.475c1.17-.578,2.337-1.2,3.469-1.859a.25.25,0,0,1,.251.433c-1.142.661-2.319,1.291-3.5,1.874A.23.23,0,0,1,265.791,1758.509Zm-56.988-1.821a.245.245,0,0,1-.124-.034c-1.14-.658-2.277-1.364-3.378-2.1a.25.25,0,1,1,.278-.416c1.092.728,2.219,1.428,3.35,2.081a.25.25,0,0,1-.126.467Zm63.827-2.138a.25.25,0,0,1-.139-.458c1.087-.729,2.163-1.5,3.2-2.3a.248.248,0,0,1,.351.046.251.251,0,0,1-.046.35c-1.045.8-2.131,1.583-3.226,2.318A.258.258,0,0,1,272.63,1754.55Zm-70.408-2.259a.25.25,0,0,1-.153-.052c-1.048-.8-2.082-1.651-3.073-2.519a.25.25,0,1,1,.329-.377c.984.861,2.009,1.7,3.049,2.5a.25.25,0,0,1,.046.35A.247.247,0,0,1,202.222,1752.291Zm76.677-2.562a.25.25,0,0,1-.165-.438c.985-.865,1.952-1.771,2.876-2.7a.25.25,0,0,1,.353.353c-.931.932-1.906,1.846-2.9,2.717A.247.247,0,0,1,278.9,1749.729Zm-82.63-2.65a.249.249,0,0,1-.177-.073c-.931-.929-1.846-1.9-2.72-2.9a.25.25,0,0,1,.375-.33c.867.985,1.775,1.95,2.7,2.872a.25.25,0,0,1,0,.354A.246.246,0,0,1,196.269,1747.079Zm88.223-2.943a.251.251,0,0,1-.188-.415c.86-.979,1.7-2,2.5-3.046a.25.25,0,1,1,.4.3c-.808,1.051-1.657,2.084-2.523,3.072A.249.249,0,0,1,284.492,1744.136Zm-93.447-3a.249.249,0,0,1-.2-.1c-.808-1.049-1.589-2.134-2.32-3.223a.25.25,0,0,1,.415-.279c.725,1.081,1.5,2.156,2.3,3.2a.25.25,0,0,1-.046.351A.247.247,0,0,1,191.045,1741.14Zm98.268-3.281a.25.25,0,0,1-.208-.388c.728-1.087,1.43-2.212,2.086-3.347a.25.25,0,1,1,.433.25c-.662,1.145-1.37,2.279-2.1,3.374A.249.249,0,0,1,289.313,1737.859Zm-102.675-3.283a.252.252,0,0,1-.217-.125c-.662-1.14-1.294-2.316-1.879-3.495a.25.25,0,0,1,.448-.223c.58,1.169,1.207,2.336,1.864,3.468a.249.249,0,0,1-.091.341A.246.246,0,0,1,186.638,1734.576Zm106.639-3.57a.233.233,0,0,1-.111-.027.248.248,0,0,1-.113-.334c.579-1.17,1.127-2.379,1.63-3.592a.25.25,0,1,1,.462.191c-.507,1.223-1.06,2.442-1.644,3.622A.248.248,0,0,1,293.277,1731.006Zm-110.15-3.508a.252.252,0,0,1-.231-.154c-.506-1.215-.978-2.463-1.4-3.709a.251.251,0,0,1,.156-.318.249.249,0,0,1,.318.156c.422,1.236.89,2.473,1.392,3.679a.25.25,0,0,1-.134.327A.255.255,0,0,1,183.127,1727.5Zm113.183-3.809a.229.229,0,0,1-.081-.013.25.25,0,0,1-.156-.317c.421-1.242.8-2.51,1.141-3.771a.25.25,0,0,1,.484.129c-.34,1.271-.727,2.551-1.152,3.8A.248.248,0,0,1,296.31,1723.689Zm-115.735-3.67a.251.251,0,0,1-.241-.185c-.343-1.276-.648-2.578-.906-3.87a.249.249,0,0,1,.2-.294.254.254,0,0,1,.294.2c.256,1.281.558,2.572.9,3.837a.25.25,0,0,1-.176.307A.243.243,0,0,1,180.575,1720.019Zm117.776-3.972a.258.258,0,0,1-.049-.005.249.249,0,0,1-.2-.294c.253-1.279.467-2.587.637-3.889a.261.261,0,0,1,.28-.215.25.25,0,0,1,.216.28c-.171,1.312-.387,2.632-.643,3.922A.249.249,0,0,1,298.351,1716.047Zm-119.326-3.784a.25.25,0,0,1-.247-.217c-.173-1.31-.3-2.64-.392-3.954a.249.249,0,0,1,.233-.266.243.243,0,0,1,.266.233c.086,1.3.217,2.623.389,3.92a.252.252,0,0,1-.215.282Zm120.349-4.059h-.017a.249.249,0,0,1-.233-.265c.084-1.306.126-2.631.126-3.938v-.236a.249.249,0,0,1,.248-.252h0a.25.25,0,0,1,.25.248v.24c0,1.317-.043,2.653-.127,3.97A.25.25,0,0,1,299.374,1708.2ZM178.5,1704.369a.25.25,0,0,1-.25-.25V1704c0-1.286.041-2.581.12-3.851a.241.241,0,0,1,.265-.234.25.25,0,0,1,.234.266c-.079,1.258-.119,2.544-.119,3.819v.119A.25.25,0,0,1,178.5,1704.369Zm120.856-4.311a.251.251,0,0,1-.249-.233c-.089-1.306-.223-2.625-.4-3.921a.25.25,0,0,1,.214-.281.258.258,0,0,1,.281.215c.175,1.306.31,2.636.4,3.952a.249.249,0,0,1-.232.267Zm-120.361-3.582-.032,0a.25.25,0,0,1-.216-.281c.168-1.311.381-2.63.634-3.922a.256.256,0,0,1,.293-.2.25.25,0,0,1,.2.293c-.25,1.28-.462,2.589-.629,3.891A.25.25,0,0,1,178.995,1696.476ZM298.3,1692.22a.25.25,0,0,1-.244-.2c-.259-1.284-.564-2.574-.906-3.836a.25.25,0,1,1,.482-.131c.345,1.273.653,2.574.914,3.867a.251.251,0,0,1-.2.295A.278.278,0,0,1,298.3,1692.22Zm-117.79-3.507a.242.242,0,0,1-.064-.009.25.25,0,0,1-.178-.306c.337-1.27.722-2.55,1.144-3.8a.25.25,0,0,1,.474.16c-.418,1.243-.8,2.513-1.134,3.773A.251.251,0,0,1,180.513,1688.713Zm115.719-4.128a.249.249,0,0,1-.236-.169c-.424-1.234-.895-2.472-1.4-3.676a.25.25,0,1,1,.461-.193c.509,1.215.984,2.462,1.412,3.707a.249.249,0,0,1-.156.317A.226.226,0,0,1,296.232,1684.585Zm-113.191-3.373a.25.25,0,0,1-.231-.346c.5-1.223,1.055-2.443,1.636-3.626a.25.25,0,1,1,.449.221c-.577,1.173-1.123,2.383-1.624,3.6A.25.25,0,0,1,183.041,1681.212Zm110.14-3.914a.25.25,0,0,1-.224-.139c-.585-1.173-1.215-2.338-1.871-3.463a.251.251,0,0,1,.09-.342.248.248,0,0,1,.342.09c.661,1.134,1.3,2.309,1.886,3.493a.251.251,0,0,1-.223.361ZM186.533,1674.1a.25.25,0,0,1-.217-.375c.66-1.144,1.365-2.28,2.1-3.377a.25.25,0,1,1,.416.277c-.726,1.088-1.426,2.216-2.079,3.35A.247.247,0,0,1,186.533,1674.1Zm102.667-3.634a.247.247,0,0,1-.207-.111c-.734-1.087-1.51-2.16-2.308-3.191a.251.251,0,0,1,.045-.351.247.247,0,0,1,.351.044c.8,1.04,1.587,2.123,2.326,3.219a.25.25,0,0,1-.207.39Zm-98.278-2.952a.245.245,0,0,1-.151-.052.25.25,0,0,1-.047-.351c.8-1.048,1.649-2.082,2.517-3.075a.252.252,0,0,1,.353-.024.249.249,0,0,1,.023.352c-.861.985-1.7,2.012-2.5,3.052A.252.252,0,0,1,190.922,1667.519Zm93.44-3.3a.25.25,0,0,1-.188-.085c-.866-.981-1.776-1.944-2.7-2.866a.25.25,0,0,1,.352-.356c.935.93,1.853,1.9,2.726,2.891a.251.251,0,0,1-.187.416Zm-88.233-2.656a.251.251,0,0,1-.177-.427c.935-.938,1.908-1.854,2.9-2.722a.25.25,0,0,1,.33.375c-.978.861-1.944,1.77-2.87,2.7A.253.253,0,0,1,196.129,1661.561Zm82.621-2.921a.252.252,0,0,1-.164-.062c-.989-.862-2.016-1.7-3.054-2.493a.25.25,0,1,1,.3-.4c1.045.8,2.081,1.644,3.079,2.513a.25.25,0,0,1-.165.439Zm-76.688-2.309a.25.25,0,0,1-.152-.448c1.043-.805,2.127-1.586,3.221-2.322a.25.25,0,1,1,.28.414c-1.086.73-2.161,1.505-3.2,2.3A.249.249,0,0,1,202.062,1656.331Zm70.4-2.493a.249.249,0,0,1-.138-.042c-1.093-.726-2.221-1.424-3.354-2.075a.25.25,0,1,1,.249-.434c1.142.656,2.28,1.36,3.381,2.093a.25.25,0,0,1-.138.458Zm-63.838-1.92a.253.253,0,0,1-.217-.124.25.25,0,0,1,.091-.342c1.15-.669,2.326-1.3,3.5-1.882a.25.25,0,1,1,.223.448c-1.16.575-2.326,1.2-3.467,1.866A.248.248,0,0,1,208.623,1651.918ZM265.6,1649.9a.244.244,0,0,1-.11-.026c-1.18-.578-2.391-1.123-3.6-1.619a.25.25,0,0,1,.191-.463c1.216.5,2.437,1.05,3.627,1.633a.25.25,0,0,1-.11.475Zm-49.9-1.494a.25.25,0,0,1-.1-.48c1.219-.509,2.467-.983,3.709-1.407a.249.249,0,1,1,.162.472c-1.232.422-2.47.891-3.679,1.4A.231.231,0,0,1,215.7,1648.4Zm42.573-1.517a.243.243,0,0,1-.08-.013c-1.242-.417-2.513-.8-3.775-1.13a.25.25,0,0,1-.178-.3.254.254,0,0,1,.305-.179c1.273.336,2.554.72,3.807,1.139a.251.251,0,0,1-.079.488Zm-35.095-1.043a.25.25,0,0,1-.066-.491c1.272-.344,2.573-.651,3.868-.912a.254.254,0,0,1,.294.2.25.25,0,0,1-.195.295c-1.285.259-2.576.562-3.836.9A.249.249,0,0,1,223.175,1645.841Zm27.448-.975a.258.258,0,0,1-.049-.005c-1.281-.249-2.589-.46-3.89-.626a.25.25,0,0,1-.217-.279.253.253,0,0,1,.28-.217c1.312.168,2.631.38,3.923.632a.25.25,0,0,1-.047.495Zm-19.694-.583a.25.25,0,0,1-.033-.5c1.3-.173,2.634-.306,3.953-.4a.242.242,0,0,1,.266.232.248.248,0,0,1-.232.266c-1.309.089-2.628.221-3.921.393Zm11.847-.417h-.015c-1.243-.077-2.509-.116-3.761-.116h-.179a.25.25,0,0,1,0-.5H239c1.263,0,2.538.039,3.792.116a.25.25,0,0,1-.016.5Z" fill="#fff"/>
        </g>
      </g>
      <path id="Path_274" data-name="Path 274" d="M77,1749.248S93.316,1773,105.376,1745c7.308-16.967,19.863-37,54.624-36l-.709,10s-20.573,6-31.214,56c-7.641,35.9-32.633,51.733-51.077,47.366Z" fill="url(#linear-gradient)"/>
      <g id="Group_450" data-name="Group 450">
        <path id="Path_275" data-name="Path 275" d="M189.655,1694.859l-5.6-7.261c-3.554-4.61-3.4-9.324.279-8.484l5.793,1.323,5.792,1.323c3.678.84,8.12,6.6,8,10.373l-.195,5.938-.2,5.939c-.124,3.77-4.721,2.72-8.275-1.89Z" fill="#1c368c"/>
        <g id="Group_449" data-name="Group 449">
          <path id="Path_276" data-name="Path 276" d="M117.242,1746.561c-.154-.074-.3-.157-.457-.231-.057-.234-.12-.459-.183-.683-9.277-35.969,27.656-36.076,27.656-36.076l6.6,9.395-.061.051,7.683,8.423S150.324,1763.463,117.242,1746.561Z" fill="#fbb03b"/>
          <path id="Path_277" data-name="Path 277" d="M128.606,1736.851c-.088-.042-.173-.09-.261-.132-.032-.134-.068-.262-.1-.389-5.289-20.507,15.768-20.568,15.768-20.568l3.759,5.356-.035.029,4.381,4.8S147.467,1746.487,128.606,1736.851Z" fill="#fbcd3b"/>
          <path id="Rectangle_167" data-name="Rectangle 167" d="M10.169,0H35.731A27.269,27.269,0,0,1,63,27.269v0A27.269,27.269,0,0,1,35.731,54.537H10.169A10.169,10.169,0,0,1,0,44.368v-34.2A10.169,10.169,0,0,1,10.169,0Z" transform="translate(130.903 1701.301) rotate(-32.329)" fill="#2a52c8"/>
          <g id="Group_448" data-name="Group 448">
            <circle id="Ellipse_34" data-name="Ellipse 34" cx="15" cy="15" r="15" transform="translate(157.045 1690.436)" fill="#fff" opacity="0.3"/>
            <circle id="Ellipse_35" data-name="Ellipse 35" cx="9" cy="9" r="9" transform="translate(163.045 1696.436)" fill="#fff" opacity="0.3"/>
          </g>
        </g>
      </g>
      <g id="Group_452" data-name="Group 452" opacity="0.8">
        <circle id="Ellipse_36" data-name="Ellipse 36" cx="11.5" cy="11.5" r="11.5" transform="translate(193 1740.5)" fill="#fbdeb2"/>
        <circle id="Ellipse_37" data-name="Ellipse 37" cx="9.153" cy="9.153" r="9.153" transform="translate(195.347 1742.847)" fill="#fbb03b"/>
        <g id="Group_451" data-name="Group 451">
          <path id="Path_278" data-name="Path 278" d="M201.246,1747.152h6.508v1.227h-6.508Zm0,4.768h2.107a1.667,1.667,0,0,0,.86-.22,1.5,1.5,0,0,0,.58-.624,2.01,2.01,0,0,0,.207-.93,2.047,2.047,0,0,0-.2-.93,1.483,1.483,0,0,0-.577-.624,1.683,1.683,0,0,0-.867-.22h-2.107v-.96H203.7a2.681,2.681,0,0,1,1.407.364,2.439,2.439,0,0,1,.94,1.03,3.4,3.4,0,0,1,.334,1.54,2.746,2.746,0,0,1-.394,1.471,2.6,2.6,0,0,1-1.107.983,3.726,3.726,0,0,1-1.647.347h-1.987Zm0-2.408h6.508v1.214h-6.508Zm2.04,3.335,1.354-.307,2.481,4.308h-1.614Z" fill="#fbebd3"/>
        </g>
      </g>
      <g id="Group_453" data-name="Group 453">
        <path id="Path_279" data-name="Path 279" d="M225.054,1883.5a1,1,0,1,1,0-2c1.3,0,2.624-.051,3.921-.147a1,1,0,0,1,.15,1.994c-1.347.1-2.716.152-4.07.153Zm-3.995-.143-.074,0c-1.354-.1-2.716-.249-4.048-.446a1,1,0,0,1-.842-1.136,1.013,1.013,0,0,1,1.136-.842c1.283.19,2.6.335,3.9.43a1,1,0,0,1-.072,2Zm11.962-.455a1,1,0,0,1-.146-1.989c1.288-.193,2.584-.438,3.854-.727a1,1,0,1,1,.445,1.949c-1.318.3-2.665.555-4,.757A1.264,1.264,0,0,1,233.021,1882.9Zm-19.866-.718a.987.987,0,0,1-.221-.025c-1.323-.3-2.648-.651-3.938-1.047a1,1,0,1,1,.587-1.912c1.242.381,2.517.721,3.791,1.008a1,1,0,0,1-.219,1.976Zm27.657-1.059a1,1,0,0,1-.294-1.955c1.248-.386,2.493-.823,3.7-1.3a1,1,0,0,1,.733,1.861c-1.256.495-2.549.948-3.845,1.348A1.007,1.007,0,0,1,240.812,1881.125Zm-35.3-1.286a1,1,0,0,1-.364-.069c-1.263-.495-2.52-1.042-3.738-1.628a1,1,0,1,1,.867-1.8c1.173.564,2.384,1.093,3.6,1.569a1,1,0,0,1-.366,1.931Zm42.738-1.64a1,1,0,0,1-.436-1.9c1.167-.564,2.333-1.182,3.465-1.837a1,1,0,0,1,1,1.73c-1.175.681-2.385,1.323-3.6,1.908A1,1,0,0,1,248.247,1878.2Zm-49.946-1.826a.993.993,0,0,1-.5-.134c-1.17-.676-2.331-1.405-3.451-2.168a1,1,0,1,1,1.126-1.652c1.079.734,2.2,1.437,3.325,2.088a1,1,0,0,1-.5,1.866Zm56.858-2.178a1,1,0,0,1-.566-1.825c1.076-.736,2.137-1.521,3.155-2.334A1,1,0,0,1,259,1871.6c-1.056.843-2.157,1.658-3.274,2.422A.992.992,0,0,1,255.159,1874.195Zm-63.466-2.324a.993.993,0,0,1-.622-.218c-1.058-.842-2.1-1.735-3.091-2.655a1,1,0,1,1,1.359-1.467c.956.886,1.958,1.746,2.978,2.558a1,1,0,0,1-.624,1.782Zm69.707-2.663a1,1,0,0,1-.68-1.732c.956-.889,1.889-1.824,2.774-2.777a1,1,0,1,1,1.466,1.36c-.918.99-1.887,1.96-2.879,2.881A1,1,0,0,1,261.4,1869.208Zm-75.571-2.769a1,1,0,0,1-.732-.318c-.92-.989-1.816-2.026-2.662-3.083a1,1,0,0,1,1.561-1.25c.815,1.018,1.678,2.017,2.565,2.97a1,1,0,0,1-.732,1.681Zm81.008-3.09a1,1,0,0,1-.781-1.624c.812-1.018,1.6-2.08,2.333-3.158a1,1,0,0,1,1.652,1.127c-.764,1.119-1.579,2.222-2.422,3.279A1,1,0,0,1,266.837,1863.349Zm-86-3.146a1,1,0,0,1-.826-.434c-.765-1.118-1.5-2.276-2.174-3.443a1,1,0,0,1,1.729-1c.653,1.124,1.358,2.24,2.1,3.316a1,1,0,0,1-.825,1.565Zm90.51-3.458a.989.989,0,0,1-.5-.135,1,1,0,0,1-.365-1.366c.652-1.127,1.27-2.3,1.837-3.471a1,1,0,0,1,1.8.87c-.589,1.22-1.231,2.432-1.908,3.6A1,1,0,0,1,271.345,1856.745Zm-94.52-3.45a1,1,0,0,1-.9-.565c-.589-1.215-1.139-2.469-1.635-3.726a1,1,0,0,1,1.86-.734c.478,1.21,1.008,2.418,1.575,3.589a1,1,0,0,1-.9,1.436Zm97.994-3.754a1,1,0,0,1-.93-1.366c.475-1.21.911-2.457,1.3-3.707a1,1,0,0,1,1.912.588c-.4,1.3-.853,2.593-1.347,3.851A1,1,0,0,1,274.819,1849.541Zm-100.928-3.677a1,1,0,0,1-.955-.7c-.4-1.29-.757-2.614-1.059-3.933a1,1,0,1,1,1.949-.448c.292,1.272.635,2.546,1.02,3.789a1,1,0,0,1-.659,1.251A.98.98,0,0,1,173.891,1845.864Zm103.282-3.965a1,1,0,0,1-.976-1.221c.288-1.268.532-2.565.724-3.856a1,1,0,1,1,1.979.295c-.2,1.341-.454,2.688-.753,4A1,1,0,0,1,277.173,1841.9ZM172.1,1838.076a1,1,0,0,1-.987-.85c-.2-1.338-.357-2.7-.459-4.047a1,1,0,1,1,1.994-.151c.1,1.3.247,2.61.442,3.9a1,1,0,0,1-.839,1.137A.954.954,0,0,1,172.1,1838.076Zm106.25-4.082c-.024,0-.049,0-.074,0a1,1,0,0,1-.924-1.07c.1-1.3.144-2.614.144-3.921v-.208a1,1,0,0,1,.993-1.007h.007a1,1,0,0,1,1,.993v.215c0,1.362-.05,2.732-.149,4.074A1,1,0,0,1,278.354,1833.994ZM171.5,1830.107a1,1,0,0,1-1-1V1829c0-1.319.048-2.651.142-3.959a1,1,0,1,1,1.995.143c-.091,1.26-.137,2.545-.137,3.816v.107A1,1,0,0,1,171.5,1830.107Zm106.836-4.317a1,1,0,0,1-1-.922c-.1-1.3-.253-2.614-.45-3.9a1,1,0,1,1,1.977-.3c.2,1.333.362,2.693.467,4.045a1,1,0,0,1-.919,1.075C278.388,1825.789,278.362,1825.79,278.336,1825.79Zm-106.261-3.652a.912.912,0,0,1-.147-.011,1,1,0,0,1-.844-1.135c.2-1.338.448-2.685.745-4a1,1,0,1,1,1.951.44c-.286,1.27-.527,2.567-.717,3.856A1,1,0,0,1,172.075,1822.138Zm105.048-4.246a1,1,0,0,1-.974-.775c-.294-1.27-.639-2.544-1.027-3.786a1,1,0,0,1,1.909-.6c.4,1.29.762,2.613,1.067,3.931a1,1,0,0,1-.749,1.2A.977.977,0,0,1,277.123,1817.892Zm-103.295-3.55a1,1,0,0,1-.957-1.292c.4-1.3.847-2.592,1.339-3.853a1,1,0,0,1,1.863.727c-.474,1.215-.908,2.463-1.289,3.71A1,1,0,0,1,173.828,1814.342Zm100.915-4.078a1,1,0,0,1-.93-.631c-.481-1.21-1.014-2.417-1.583-3.586a1,1,0,1,1,1.8-.875c.592,1.214,1.144,2.466,1.643,3.723a1,1,0,0,1-.928,1.369Zm-98.008-3.375a1,1,0,0,1-.9-1.433c.584-1.217,1.224-2.43,1.9-3.606a1,1,0,1,1,1.734,1c-.652,1.132-1.268,2.3-1.83,3.473A1,1,0,0,1,176.735,1806.889Zm94.512-3.8a1,1,0,0,1-.865-.5c-.656-1.127-1.363-2.241-2.1-3.312a1,1,0,0,1,1.648-1.134c.765,1.112,1.5,2.269,2.181,3.438a1,1,0,0,1-.863,1.5Zm-90.523-3.127a1,1,0,0,1-.826-1.562c.764-1.124,1.577-2.228,2.415-3.283a1,1,0,0,1,1.566,1.246c-.808,1.016-1.591,2.079-2.327,3.162A1,1,0,0,1,180.724,1799.958Zm85.994-3.456a1,1,0,0,1-.78-.373c-.816-1.016-1.682-2.014-2.57-2.965a1,1,0,0,1,1.461-1.365c.922.987,1.82,2.022,2.668,3.076a1,1,0,0,1-.779,1.627Zm-81.019-2.8a1,1,0,0,1-.734-1.678c.913-.989,1.88-1.96,2.873-2.888a1,1,0,0,1,1.365,1.463c-.957.893-1.889,1.829-2.769,2.782A1,1,0,0,1,185.7,1793.7Zm75.562-3.035a.993.993,0,0,1-.678-.266c-.954-.879-1.957-1.739-2.982-2.552a1,1,0,1,1,1.243-1.567c1.064.844,2.106,1.737,3.1,2.651a1,1,0,0,1-.679,1.734Zm-69.716-2.415a1,1,0,0,1-.626-1.78c1.052-.844,2.151-1.66,3.268-2.428a1,1,0,1,1,1.133,1.648c-1.077.74-2.136,1.527-3.15,2.34A1,1,0,0,1,191.545,1788.249ZM255,1785.694a.991.991,0,0,1-.56-.172c-1.086-.736-2.207-1.436-3.329-2.081a1,1,0,1,1,.995-1.734c1.166.669,2.328,1.4,3.456,2.159a1,1,0,0,1-.562,1.828Zm-56.865-1.967a1,1,0,0,1-.5-1.865c1.168-.68,2.377-1.324,3.593-1.914a1,1,0,1,1,.873,1.8c-1.171.568-2.335,1.189-3.46,1.844A1,1,0,0,1,198.132,1783.727Zm49.93-2.014a.992.992,0,0,1-.431-.1c-1.179-.564-2.392-1.09-3.6-1.561a1,1,0,0,1,.726-1.864c1.258.49,2.517,1.035,3.742,1.621a1,1,0,0,1-.433,1.9Zm-42.748-1.474a1,1,0,0,1-.369-1.929c1.259-.5,2.551-.956,3.842-1.357a1,1,0,1,1,.594,1.91c-1.243.387-2.487.825-3.7,1.306A.991.991,0,0,1,205.314,1780.239Zm35.293-1.427a1.018,1.018,0,0,1-.291-.043c-1.249-.38-2.525-.717-3.794-1a1,1,0,0,1,.437-1.952c1.317.295,2.642.645,3.939,1.038a1,1,0,0,1-.291,1.958Zm-27.664-.949a1,1,0,0,1-.223-1.974c1.322-.305,2.668-.562,4-.764a1,1,0,1,1,.3,1.977c-1.283.195-2.579.442-3.852.736A1.032,1.032,0,0,1,212.943,1777.863Zm19.868-.8a.878.878,0,0,1-.145-.01c-1.3-.189-2.609-.33-3.9-.422a1,1,0,1,1,.14-1.994c1.342.094,2.7.241,4.049.437a1,1,0,0,1-.143,1.989Zm-11.969-.4a1,1,0,0,1-.075-2c1.35-.1,2.719-.158,4.069-.161h0a1,1,0,0,1,0,2c-1.3,0-2.619.055-3.92.155C220.894,1776.658,220.868,1776.659,220.842,1776.659Z" fill="#fbebd3"/>
      </g>
      <g id="Group_455" data-name="Group 455" opacity="0.3">
        <circle id="Ellipse_38" data-name="Ellipse 38" cx="8.5" cy="8.5" r="8.5" transform="translate(145 1803.5)" fill="#fbdeb2"/>
        <circle id="Ellipse_39" data-name="Ellipse 39" cx="6.765" cy="6.765" r="6.765" transform="translate(146.735 1805.235)" fill="#fbb03b"/>
        <g id="Group_454" data-name="Group 454">
          <path id="Path_280" data-name="Path 280" d="M151.1,1808.417h4.81v.906H151.1Zm0,3.524h1.557a1.233,1.233,0,0,0,.636-.163,1.105,1.105,0,0,0,.429-.461,1.631,1.631,0,0,0,0-1.375,1.093,1.093,0,0,0-.426-.461,1.245,1.245,0,0,0-.641-.162H151.1v-.71h1.814a1.979,1.979,0,0,1,1.04.269,1.819,1.819,0,0,1,.695.761,2.516,2.516,0,0,1,.246,1.139,2.021,2.021,0,0,1-.291,1.086,1.933,1.933,0,0,1-.818.728,2.765,2.765,0,0,1-1.217.256H151.1Zm0-1.78h4.81v.9H151.1Zm1.508,2.465,1-.227,1.833,3.184h-1.193Z" fill="#fbebd3"/>
        </g>
      </g>
      <g id="Group_457" data-name="Group 457" opacity="0.6">
        <circle id="Ellipse_40" data-name="Ellipse 40" cx="11.5" cy="11.5" r="11.5" transform="translate(213 1812.5)" fill="#fbdeb2"/>
        <circle id="Ellipse_41" data-name="Ellipse 41" cx="9.153" cy="9.153" r="9.153" transform="translate(215.347 1814.847)" fill="#fbb03b"/>
        <g id="Group_456" data-name="Group 456">
          <path id="Path_281" data-name="Path 281" d="M221.246,1819.152h6.508v1.227h-6.508Zm0,4.768h2.107a1.667,1.667,0,0,0,.86-.22,1.5,1.5,0,0,0,.58-.624,2.01,2.01,0,0,0,.207-.93,2.047,2.047,0,0,0-.2-.93,1.483,1.483,0,0,0-.577-.624,1.683,1.683,0,0,0-.867-.22h-2.107v-.96H223.7a2.681,2.681,0,0,1,1.407.364,2.439,2.439,0,0,1,.94,1.03,3.4,3.4,0,0,1,.334,1.54,2.746,2.746,0,0,1-.394,1.471,2.6,2.6,0,0,1-1.107.983,3.726,3.726,0,0,1-1.647.347h-1.987Zm0-2.408h6.508v1.214h-6.508Zm2.04,3.335,1.354-.307,2.481,4.308h-1.614Z" fill="#fbebd3"/>
        </g>
      </g>
      <g id="Group_459" data-name="Group 459">
        <circle id="Ellipse_42" data-name="Ellipse 42" cx="21.5" cy="21.5" r="21.5" transform="translate(170 1772)" fill="#07061f"/>
        <circle id="Ellipse_43" data-name="Ellipse 43" cx="17.5" cy="17.5" r="17.5" transform="translate(172 1774)" fill="#fbdeb2"/>
        <circle id="Ellipse_44" data-name="Ellipse 44" cx="13.929" cy="13.929" r="13.929" transform="translate(175.571 1777.571)" fill="#fbb03b"/>
        <g id="Group_458" data-name="Group 458">
          <path id="Path_282" data-name="Path 282" d="M184.548,1784.123h9.9v1.866h-9.9Zm0,7.255h3.207a2.534,2.534,0,0,0,1.309-.335,2.277,2.277,0,0,0,.883-.949,3.068,3.068,0,0,0,.314-1.415,3.11,3.11,0,0,0-.309-1.416,2.259,2.259,0,0,0-.878-.949,2.553,2.553,0,0,0-1.319-.334h-3.207v-1.462h3.734a4.087,4.087,0,0,1,2.142.553,3.723,3.723,0,0,1,1.43,1.568,5.164,5.164,0,0,1,.508,2.344,4.171,4.171,0,0,1-.6,2.238,3.968,3.968,0,0,1-1.685,1.5,5.675,5.675,0,0,1-2.506.527h-3.024Zm0-3.664h9.9v1.848h-9.9Zm3.1,5.074,2.06-.466,3.775,6.555h-2.456Z" fill="#fbebd3"/>
        </g>
      </g>
    </g>
  </g>
</svg>
