<svg xmlns="http://www.w3.org/2000/svg" width="84" height="84" viewBox="0 0 84 84">
  <g id="Group_415" data-name="Group 415" transform="translate(-0.118)">
    <g id="Group_409" data-name="Group 409" transform="translate(9.164 6.109)">
      <path id="Path_260" data-name="Path 260" d="M159.948,14.18C159.6,7.336,154.728,2,148.7,2H107.631C101.6,2,96.61,7.336,96.378,14.18L95.1,45.617a12.9,12.9,0,0,0,5.336,11.368l21.809,15.2a10.357,10.357,0,0,0,11.832,0l21.809-15.2a13.169,13.169,0,0,0,5.336-11.368ZM154.5,55.013l-21.809,15.2a8.431,8.431,0,0,1-4.524,1.508,7.323,7.323,0,0,1-4.524-1.508l-21.809-15.2a11.148,11.148,0,0,1-4.408-9.4L98.7,14.18c.232-5.568,4.176-9.976,8.932-9.976H148.7c4.756,0,8.7,4.408,8.932,9.976L158.9,45.617A10.857,10.857,0,0,1,154.5,55.013Z" transform="translate(-95.085 -2)" fill="#39d4cb"/>
      <path id="Path_261" data-name="Path 261" d="M125.52,17a13.92,13.92,0,1,0,13.92,13.92A13.961,13.961,0,0,0,125.52,17Zm0,25.521a11.6,11.6,0,1,1,11.6-11.6A11.634,11.634,0,0,1,125.52,42.521Z" transform="translate(-92.442 0.4)" fill="#39d4cb"/>
      <path id="Path_262" data-name="Path 262" d="M131.219,24.734l-8.236,7.192-2.784-4.64a1.174,1.174,0,0,0-1.972,1.276l4.176,6.96,10.324-9.048a1.128,1.128,0,0,0,.116-1.624A1.233,1.233,0,0,0,131.219,24.734Z" transform="translate(-91.413 1.599)" fill="#39d4cb"/>
    </g>
    <rect id="Rectangle_156" data-name="Rectangle 156" width="84" height="84" transform="translate(0.118)" fill="none"/>
  </g>
</svg>
