<svg xmlns="http://www.w3.org/2000/svg" width="84" height="84" viewBox="0 0 84 84">
  <g id="Group_416" data-name="Group 416" transform="translate(0.3)">
    <g id="Group_410" data-name="Group 410" transform="translate(9.927 9.927)">
      <path id="Path_263" data-name="Path 263" d="M235.961,3H219.6V9.96a1.16,1.16,0,0,0,2.32,0V5.32h14.036a15.669,15.669,0,0,1,15.66,15.66v10.44a15.669,15.669,0,0,1-15.66,15.66H207.772l4.988-4.292a1.151,1.151,0,1,0-1.508-1.74L202.9,48.357l7.888,6.612a.852.852,0,0,0,.7.232,1.055,1.055,0,0,0,.928-.464,1.121,1.121,0,0,0-.116-1.624L207.772,49.4h28.189a18,18,0,0,0,17.98-17.981V20.98A17.922,17.922,0,0,0,235.961,3Z" transform="translate(-189.676 -3)" fill="#39d4cb"/>
      <path id="Path_264" data-name="Path 264" d="M224.561,57.09a1.1,1.1,0,0,0-1.16,1.16v4.64H209.364A15.669,15.669,0,0,1,193.7,47.23V36.789a15.669,15.669,0,0,1,15.66-15.66h28.189l-4.988,4.292a1.128,1.128,0,0,0-.116,1.624,1.317,1.317,0,0,0,.928.348,2.151,2.151,0,0,0,.812-.232l8.352-7.308-7.888-6.612a1.151,1.151,0,0,0-1.508,1.74l4.524,3.712H209.48A18,18,0,0,0,191.5,36.673v10.44a18,18,0,0,0,17.98,17.981h16.24v-6.96A1.071,1.071,0,0,0,224.561,57.09Z" transform="translate(-191.5 -1.408)" fill="#39d4cb"/>
    </g>
    <rect id="Rectangle_157" data-name="Rectangle 157" width="84" height="84" transform="translate(-0.3)" fill="none"/>
  </g>
</svg>
