<svg width="199" height="54" viewBox="0 0 199 54" fill="none" xmlns="http://www.w3.org/2000/svg">
<g clip-path="url(#clip0_59_20052)">
<mask id="mask0_59_20052" style="mask-type:luminance" maskUnits="userSpaceOnUse" x="0" y="0" width="43" height="54">
<path d="M42.112 0H0V54H42.112V0Z" fill="white"/>
</mask>
<g mask="url(#mask0_59_20052)">
<mask id="mask1_59_20052" style="mask-type:luminance" maskUnits="userSpaceOnUse" x="0" y="0" width="43" height="54">
<path d="M21.056 13.1618C32.6851 13.1618 42.112 22.3035 42.112 33.5809C42.112 44.8583 32.6851 53.9993 21.056 53.9993C9.4269 53.9993 0 44.8576 0 33.5809C0 33.3027 0.00676651 33.0265 0.0175918 32.7516V0H5.46952C6.91408 0.00398098 8.2983 0.562195 9.31981 1.5527C10.3414 2.5432 10.9172 3.8855 10.9215 5.28636V34.672H10.9647C11.2058 36.7598 12.1295 38.7179 13.6006 40.2601C15.0717 41.8022 17.0132 42.8474 19.1408 43.2427C21.2684 43.638 23.4707 43.3627 25.4254 42.4571C27.3802 41.5514 28.9847 40.0631 30.0045 38.2096C31.0243 36.3561 31.4057 34.2348 31.093 32.1559C30.7803 30.0771 29.7897 28.1499 28.2664 26.6562C26.7431 25.1624 24.7669 24.1806 22.6268 23.8543C20.4868 23.528 18.2952 23.8744 16.3727 24.8427V13.669C17.9094 13.3309 19.4803 13.1608 21.056 13.1618Z" fill="white"/>
</mask>
<g mask="url(#mask1_59_20052)">
<path d="M42.112 0H0V54H42.112V0Z" fill="url(#paint0_linear_59_20052)"/>
</g>
<mask id="mask2_59_20052" style="mask-type:luminance" maskUnits="userSpaceOnUse" x="0" y="18" width="16" height="25">
<path d="M15.7942 18.1328H0V42.9197H15.7942V18.1328Z" fill="url(#paint1_linear_59_20052)"/>
</mask>
<g mask="url(#mask2_59_20052)">
<path fill-rule="evenodd" clip-rule="evenodd" d="M2.3268 42.9197C0.793244 40.0319 -0.00461481 36.83 2.00786e-05 33.5818C2.00786e-05 33.3036 0.00678659 33.0274 0.017612 32.7525V18.1328C3.28281 20.9581 7.79429 25.1435 9.13261 25.9406C9.48776 26.1519 10.1474 26.9904 10.9215 28.1839V34.6723H10.9647C11.1376 36.1709 11.663 37.6111 12.5004 38.8818C13.3378 40.1525 14.465 41.2197 15.7949 42.0011C15.2475 42.9151 13.8944 42.9893 11.3356 41.6501C0.4283 35.9418 2.29906 42.816 2.3268 42.9171" fill="#FF99FF"/>
</g>
<mask id="mask3_59_20052" style="mask-type:luminance" maskUnits="userSpaceOnUse" x="0" y="22" width="27" height="22">
<path d="M26.1141 22.4014H0.112915V43.9365H26.1141V22.4014Z" fill="url(#paint2_linear_59_20052)"/>
</mask>
<g mask="url(#mask3_59_20052)">
<path fill-rule="evenodd" clip-rule="evenodd" d="M10.9216 27.8711V34.6725H10.9648C11.1523 36.2961 11.7532 37.8491 12.7136 39.1915C13.6739 40.5339 14.9635 41.6237 16.4662 42.3625C17.9689 43.1013 19.6375 43.466 21.3218 43.4238C23.006 43.3816 24.6529 42.9338 26.1143 42.1207C25.9194 42.5183 25.4594 42.8424 24.6549 43.0682C10.6381 46.9728 -0.446419 37.2989 0.134768 22.4004C0.134768 22.4004 9.98115 27.3515 10.7822 27.7806C10.8208 27.8015 10.8674 27.8304 10.9216 27.8672" fill="#FF99FF"/>
</g>
<mask id="mask4_59_20052" style="mask-type:luminance" maskUnits="userSpaceOnUse" x="21" y="28" width="19" height="26">
<path d="M39.8576 28.874H21.056V53.9995H39.8576V28.874Z" fill="url(#paint3_linear_59_20052)"/>
</mask>
<g mask="url(#mask4_59_20052)">
<path fill-rule="evenodd" clip-rule="evenodd" d="M39.8576 42.7799C36.3881 49.4356 29.2718 53.9995 21.056 53.9995C32.3137 45.7738 24.3036 42.9111 24.3036 42.9111C25.7074 42.4513 26.9904 41.6994 28.0629 40.7079C29.1354 39.7165 29.9713 38.5097 30.5121 37.172C31.0529 35.8342 31.2854 34.3979 31.1934 32.9639C31.1014 31.5298 30.6871 30.1326 29.9795 28.8701C31.3164 29.1778 32.9889 29.5585 33.4389 29.6404C34.219 29.7835 35.0431 31.6547 38.1506 36.0218C39.449 37.8459 39.8617 40.0347 39.8604 42.7799" fill="#3B1385"/>
</g>
<mask id="mask5_59_20052" style="mask-type:luminance" maskUnits="userSpaceOnUse" x="19" y="28" width="23" height="26">
<path d="M41.0483 28.8906H19.6885V53.999H41.0483V28.8906Z" fill="url(#paint4_linear_59_20052)"/>
</mask>
<g mask="url(#mask5_59_20052)">
<path fill-rule="evenodd" clip-rule="evenodd" d="M41.0483 40.0011C38.2743 48.1324 30.3717 53.9988 21.0558 53.9988C20.5964 53.9988 20.1404 53.983 19.6885 53.9547C29.1065 49.9209 30.8521 40.1979 31.0896 35.0946C31.2611 34.0158 31.2483 32.917 31.0517 31.8422L33.074 28.8896C33.074 28.8896 34.6599 32.2726 35.1038 32.5797C35.4563 32.8245 38.3703 36.2133 41.0483 40.0011Z" fill="#3B1385"/>
</g>
<mask id="mask6_59_20052" style="mask-type:luminance" maskUnits="userSpaceOnUse" x="0" y="0" width="22" height="44">
<path d="M0.0159912 20.2242V0H5.46792C6.91248 0.00398098 8.29668 0.562195 9.31827 1.5527C10.3398 2.5432 10.9156 3.8855 10.9198 5.28636V34.672H10.9631C11.2403 37.0794 12.4227 39.3034 14.2844 40.9185C16.1462 42.5336 18.5565 43.4265 21.0544 43.4266C0.781887 44.1733 0.0362888 22.6276 0.0159912 20.2242Z" fill="white"/>
</mask>
<g mask="url(#mask6_59_20052)">
<path d="M21.0544 0H0.0159912V44.1733H21.0544V0Z" fill="url(#paint5_linear_59_20052)"/>
</g>
<g opacity="0.4">
<mask id="mask7_59_20052" style="mask-type:luminance" maskUnits="userSpaceOnUse" x="0" y="0" width="9" height="13">
<path d="M8.89079 0H0.0159912V12.301H8.89079V0Z" fill="url(#paint6_linear_59_20052)"/>
</mask>
<g mask="url(#mask7_59_20052)">
<path fill-rule="evenodd" clip-rule="evenodd" d="M0.0159912 12.301V0H5.46792C6.71522 -5.96707e-06 7.92436 0.417114 8.89145 1.18101C0.252119 4.20835 0.0159912 12.301 0.0159912 12.301Z" fill="#FEF7A2"/>
</g>
</g>
<mask id="mask8_59_20052" style="mask-type:luminance" maskUnits="userSpaceOnUse" x="0" y="0" width="11" height="14">
<path d="M10.9192 0H0.0159912V13.7483H10.9192V0Z" fill="url(#paint7_linear_59_20052)"/>
</mask>
<g mask="url(#mask8_59_20052)">
<path fill-rule="evenodd" clip-rule="evenodd" d="M0.0159912 0H5.46792C6.91248 0.00398098 8.29668 0.562194 9.31827 1.5527C10.3398 2.5432 10.9156 3.8855 10.9198 5.28636V13.7503C9.57077 1.1902 0.0159912 0 0.0159912 0Z" fill="#FEF7A2"/>
</g>
<mask id="mask9_59_20052" style="mask-type:luminance" maskUnits="userSpaceOnUse" x="0" y="22" width="22" height="22">
<path d="M21.0569 22.4014H0.135498V43.4457H21.0569V22.4014Z" fill="url(#paint8_linear_59_20052)"/>
</mask>
<g mask="url(#mask9_59_20052)">
<path fill-rule="evenodd" clip-rule="evenodd" d="M10.9223 25.2319V34.6721H10.9656C11.2427 37.0795 12.4252 39.3034 14.2869 40.9185C16.1486 42.5337 18.5589 43.4267 21.0569 43.4267C3.76943 44.0631 0.682856 28.4914 0.135498 22.4014C7.2119 37.3327 10.9223 25.2319 10.9223 25.2319Z" fill="#CC0680"/>
</g>
<mask id="mask10_59_20052" style="mask-type:luminance" maskUnits="userSpaceOnUse" x="0" y="17" width="22" height="27">
<path d="M21.0544 17.6055H0.0159912V43.4461H21.0544V17.6055Z" fill="url(#paint9_linear_59_20052)"/>
</mask>
<g mask="url(#mask10_59_20052)">
<path fill-rule="evenodd" clip-rule="evenodd" d="M0.0159912 20.2247V17.6055C2.03357 30.5966 7.3062 42.0611 19.5835 43.3254C20.0706 43.3937 20.5623 43.4279 21.0544 43.4278C0.781887 44.1744 0.0362888 22.628 0.0159912 20.2247Z" fill="#CC0680"/>
</g>
<mask id="mask11_59_20052" style="mask-type:luminance" maskUnits="userSpaceOnUse" x="16" y="13" width="27" height="41">
<path d="M21.0559 13.1621C32.685 13.1621 42.1119 22.3038 42.1119 33.5812C42.1119 44.8586 32.685 53.9997 21.0559 53.9997C30.8352 51.3752 33.2385 39.1005 30.8218 30.8766C29.5186 26.6388 25.6438 23.7348 21.0559 23.7348C19.4254 23.7324 17.8187 24.1127 16.3726 24.843V13.6693C17.9092 13.3312 19.4802 13.1611 21.0559 13.1621Z" fill="white"/>
</mask>
<g mask="url(#mask11_59_20052)">
<path d="M42.1119 13.1621H16.3726V54.0003H42.1119V13.1621Z" fill="url(#paint10_linear_59_20052)"/>
</g>
<mask id="mask12_59_20052" style="mask-type:luminance" maskUnits="userSpaceOnUse" x="16" y="13" width="14" height="16">
<path d="M29.8908 13.1621H16.3726V28.7495H29.8908V13.1621Z" fill="url(#paint11_linear_59_20052)"/>
</mask>
<g mask="url(#mask12_59_20052)">
<path fill-rule="evenodd" clip-rule="evenodd" d="M29.8914 28.7476C29.4341 27.9599 28.8684 27.2361 28.2101 26.5962L28.2359 26.6171C29.183 27.3894 29.702 28.1006 29.8914 28.7476ZM21.0559 13.1621C21.2638 13.1621 21.4708 13.1651 21.677 13.1713C21.5322 14.6298 21.3915 20.4371 27.3252 25.8344C25.7897 24.668 23.9408 23.9547 21.9987 23.7792C20.0568 23.6037 18.1038 23.9737 16.3726 24.8449V13.6692C17.9092 13.3312 19.4802 13.1611 21.0559 13.1621Z" fill="#0131B9"/>
</g>
<mask id="mask13_59_20052" style="mask-type:luminance" maskUnits="userSpaceOnUse" x="16" y="13" width="15" height="12">
<path d="M30.8752 13.1621H16.3726V24.843H30.8752V13.1621Z" fill="url(#paint12_linear_59_20052)"/>
</mask>
<g mask="url(#mask13_59_20052)">
<path fill-rule="evenodd" clip-rule="evenodd" d="M21.0559 13.1621C24.478 13.1576 27.8492 13.9654 30.8752 15.515C16.6486 10.2267 16.3726 24.8431 16.3726 24.8431V13.6693C17.9092 13.3313 19.4802 13.1611 21.0559 13.1621Z" fill="#0131B9"/>
</g>
<mask id="mask14_59_20052" style="mask-type:luminance" maskUnits="userSpaceOnUse" x="21" y="42" width="15" height="12">
<path d="M35.6473 42.8652H21.056V53.9995H35.6473V42.8652Z" fill="url(#paint13_linear_59_20052)"/>
</mask>
<g mask="url(#mask14_59_20052)">
<path fill-rule="evenodd" clip-rule="evenodd" d="M35.6473 48.2995C31.7294 51.9619 26.4977 54.005 21.056 53.9979C26.5512 52.523 29.7163 48.0016 31.0079 42.8643C29.5248 51.5644 35.6337 48.3054 35.6473 48.2982" fill="#99FFFF"/>
</g>
<mask id="mask15_59_20052" style="mask-type:luminance" maskUnits="userSpaceOnUse" x="21" y="26" width="12" height="28">
<path d="M32.7454 26.6182H21.056V53.9994H32.7454V26.6182Z" fill="url(#paint14_linear_59_20052)"/>
</mask>
<g mask="url(#mask15_59_20052)">
<path fill-rule="evenodd" clip-rule="evenodd" d="M21.3943 53.9961C21.282 53.9961 21.1697 54 21.056 54C30.8354 51.3755 33.2386 39.1008 30.8219 30.877C30.3342 29.2728 29.4452 27.8105 28.2339 26.6201C37.016 33.3525 32.0228 52.4404 21.3916 53.9974" fill="#99FFFF"/>
</g>
</g>
<path d="M158.138 27.8067C158.138 25.4656 158.159 23.1229 158.127 20.7818C158.117 20.0132 158.402 19.762 159.159 19.7687C162.358 19.7972 165.56 19.7972 168.759 19.7687C169.507 19.762 169.794 19.9898 169.787 20.7718C169.769 23.0743 169.812 22.8249 167.763 22.8249C165.983 22.8249 164.201 22.85 162.42 22.8097C161.858 22.798 161.713 22.9722 161.745 23.5047C161.79 24.255 161.785 25.0101 161.745 25.762C161.719 26.2377 161.871 26.3666 162.343 26.3599C164.346 26.3348 166.35 26.37 168.355 26.3381C169.048 26.3263 169.283 26.5842 169.283 27.2659C169.281 29.6354 169.231 29.1699 167.433 29.1899C165.736 29.2084 164.038 29.2117 162.341 29.1833C161.863 29.1748 161.726 29.3172 161.748 29.7861C161.785 30.62 161.788 31.459 161.748 32.2947C161.724 32.782 161.895 32.8891 162.355 32.8858C164.553 32.8623 166.753 32.9025 168.95 32.8607C169.722 32.8455 169.977 33.1051 169.957 33.8771C169.9 36.1428 170.221 35.8782 167.952 35.8833C165.002 35.89 162.052 35.8665 159.102 35.8983C158.359 35.9067 158.127 35.622 158.133 34.9137C158.154 32.5458 158.138 30.1763 158.138 27.8067Z" fill="#011627"/>
<path d="M178.735 24.7431C179.699 23.3248 180.657 21.9633 181.563 20.5684C181.936 19.994 182.367 19.7127 183.066 19.7713C183.702 19.8249 184.345 19.7663 184.984 19.7864C185.831 19.8132 186.004 20.1229 185.537 20.8313C184.177 22.8961 182.812 24.9558 181.413 26.9938C181.088 27.4677 181.05 27.7775 181.405 28.2765C182.899 30.3815 184.34 32.5266 185.786 34.6651C185.96 34.923 186.266 35.1691 186.074 35.5593C185.864 35.9863 185.462 35.8306 185.123 35.8943C182.999 36.2895 181.525 35.5241 180.582 33.5549C180.191 32.7393 179.524 32.0611 179.044 31.2807C178.728 30.7684 178.556 30.7415 178.215 31.259C177.344 32.5802 176.416 33.8646 175.536 35.1792C175.197 35.6849 174.806 35.9529 174.164 35.8976C173.502 35.8407 172.83 35.8859 172.163 35.8842C171.858 35.8842 171.514 35.9428 171.342 35.6146C171.16 35.2662 171.379 34.98 171.569 34.7003C172.995 32.6137 174.388 30.5038 175.861 28.4523C176.298 27.8445 176.259 27.461 175.849 26.8715C174.505 24.9341 173.231 22.948 171.929 20.9804C171.747 20.7041 171.494 20.4277 171.673 20.0727C171.858 19.706 172.24 19.7864 172.566 19.7797C175.373 19.7228 175.371 19.7244 176.929 22.0538C177.515 22.9362 178.106 23.8088 178.735 24.7431Z" fill="#011627"/>
<path d="M130.701 27.8419C130.701 25.474 130.722 23.1062 130.688 20.7383C130.678 20.0014 130.949 19.7653 131.662 19.7704C134.832 19.7955 138.004 19.7989 141.174 19.7687C141.951 19.762 142.197 20.0635 142.189 20.8053C142.168 23.1932 142.339 22.9605 140.025 22.9605C138.356 22.9605 136.686 22.9755 135.018 22.9504C134.548 22.9437 134.312 23.0057 134.347 23.5667C134.401 24.4274 134.391 25.2948 134.349 26.1556C134.324 26.658 134.519 26.7433 134.967 26.7383C136.858 26.7149 138.751 26.7534 140.642 26.7166C141.427 26.7015 141.73 26.9628 141.724 27.7766C141.703 30.322 141.733 29.8313 139.687 29.8581C138.157 29.8782 136.625 29.9033 135.098 29.843C134.434 29.8163 134.329 30.0406 134.346 30.6335C134.389 32.0803 134.339 33.5305 134.369 34.979C134.384 35.6706 134.113 35.9402 133.429 35.8933C132.848 35.8531 132.259 35.8464 131.679 35.895C130.885 35.962 130.678 35.6002 130.688 34.8617C130.722 32.5224 130.701 30.183 130.701 27.8419Z" fill="#011627"/>
<path d="M144.685 27.7672C144.685 25.4295 144.705 23.09 144.673 20.7523C144.663 20.0406 144.879 19.7174 145.624 19.7726C146.233 19.8179 146.848 19.8145 147.458 19.7726C148.179 19.7241 148.427 19.9904 148.422 20.7306C148.39 24.4598 148.423 28.1908 148.391 31.9218C148.386 32.5682 148.54 32.7541 149.199 32.7373C151.171 32.6904 153.146 32.734 155.118 32.7139C155.807 32.7072 156.112 32.9266 156.105 33.6785C156.085 35.8856 156.112 35.8856 153.905 35.8856C151.153 35.8856 148.401 35.8655 145.65 35.899C144.929 35.9074 144.665 35.6846 144.675 34.9478C144.707 32.5565 144.685 30.1618 144.685 27.7672Z" fill="#011627"/>
<path d="M61.5342 27.422C62.4186 26.8459 63.0088 26.1409 63.2277 25.1646C63.8546 22.3547 62.0257 19.9768 59.0115 19.8528C56.4034 19.7456 53.7888 19.8059 51.1792 19.7775C50.5606 19.7708 50.3516 20.0488 50.3633 20.6433C50.3884 21.8389 50.3699 23.0362 50.3699 24.2335C50.3699 27.7971 50.3717 31.3606 50.3666 34.9225C50.3666 35.4299 50.3784 35.8904 51.0738 35.8887C53.7136 35.877 56.3567 35.9474 58.9931 35.8452C61.2751 35.7564 62.9585 34.405 63.4785 32.5044C64.0486 30.4161 63.4501 28.827 61.5342 27.422ZM55.7147 22.5104C56.5155 22.5204 57.323 22.3982 58.1154 22.6276C59.1118 22.9157 59.513 23.5185 59.4244 24.6338C59.3542 25.523 58.739 26.1392 57.7961 26.2029C57.2444 26.2414 56.686 26.2096 56.1309 26.2096C54.088 26.228 54.088 26.228 54.088 24.1498C54.0898 22.5054 54.0898 22.4903 55.7147 22.5104ZM58.1422 33.0653C56.9284 33.273 55.703 33.1189 54.4826 33.1658C54.1231 33.1792 54.0831 32.9648 54.0864 32.6818C54.0947 32.1527 54.088 31.6235 54.088 30.9687C54.1717 30.4128 53.7721 29.5018 54.2452 29.1033C54.6431 28.7684 55.5191 28.9927 56.1845 28.9877C56.7947 28.9844 57.4099 28.9727 58.0167 29.0263C59.0365 29.115 59.7237 29.8803 59.7655 30.9085C59.8123 32.0673 59.2071 32.8829 58.1422 33.0653Z" fill="#011627"/>
<path d="M109.261 19.7823C107.611 19.7806 107.611 19.7823 107.611 21.3915C107.611 24.0508 107.611 26.7084 107.611 29.4078C107.231 29.2822 107.172 28.9791 107.031 28.7631C105.464 26.34 103.821 23.9587 102.392 21.4569C101.625 20.1122 100.737 19.5646 99.2184 19.7572C98.1574 19.8911 98.0921 19.8342 98.0921 20.916C98.0905 24.8161 98.0905 28.7146 98.0905 32.6147C98.0905 33.3951 98.1087 34.1754 98.0855 34.9541C98.0649 35.6088 98.2845 35.9521 99.0013 35.8935C99.5264 35.8499 100.062 35.8433 100.584 35.8952C101.393 35.9739 101.656 35.6523 101.646 34.8469C101.608 32.0955 101.631 29.3425 101.631 26.5911C101.68 26.5744 101.729 26.5577 101.778 26.5426C103.467 29.1114 105.224 31.6383 106.815 34.2658C107.566 35.5067 108.397 36.0894 109.873 35.9136C111.073 35.7712 111.15 35.8248 111.15 34.6225C111.152 30.3054 111.145 25.9883 111.152 21.6695C111.157 19.578 111.258 19.7839 109.261 19.7823Z" fill="#011627"/>
<path d="M76.5411 29.8974C76.3404 29.5474 76.3371 29.385 76.7283 29.184C77.8033 28.6281 78.5773 27.7891 78.9518 26.6085C80.0468 23.1656 77.9002 20.0374 74.2156 19.8532C71.9119 19.7376 69.5981 19.8214 67.2894 19.7712C66.517 19.7544 66.2612 20.0525 66.2713 20.7994C66.2997 23.1404 66.2813 25.4831 66.2813 27.8243C66.2813 30.1385 66.2796 32.4511 66.2813 34.7654C66.2829 35.8154 66.3565 35.8858 67.4314 35.8858C67.9882 35.8858 68.5466 35.8573 69.1016 35.8925C69.782 35.936 70.0662 35.673 70.0411 34.9764C70.006 33.9733 70.0328 32.9702 70.0328 31.9655C70.0328 30.0096 70.0328 30.0364 72.0222 29.9995C72.5906 29.9895 72.8548 30.1905 73.0955 30.6677C73.7943 32.0543 74.565 33.404 75.2572 34.7939C75.6433 35.5692 76.1198 36.0398 77.0627 35.8975C77.5793 35.8204 78.1176 35.8907 78.6475 35.8824C79.5586 35.869 79.7242 35.5759 79.2694 34.7554C78.37 33.1327 77.4672 31.5083 76.5411 29.8974ZM73.5101 26.9987C72.4887 27.0824 71.4554 27.0154 70.429 27.0406C70.0662 27.0489 70.0245 26.8764 70.0311 26.5834C70.0445 26.0274 70.0344 25.4698 70.0344 24.7849C70.123 24.2055 69.7051 23.2627 70.1999 22.849C70.6162 22.5007 71.5223 22.7268 72.2111 22.7234C72.6809 22.7201 73.159 22.7117 73.6204 22.7888C74.7857 22.983 75.4093 23.7718 75.3775 24.939C75.3458 26.1061 74.682 26.9033 73.5101 26.9987Z" fill="#011627"/>
<path d="M127.865 26.0709C127.848 22.36 125.614 19.9804 121.928 19.8414C119.762 19.7594 117.588 19.818 115.42 19.7712C114.698 19.756 114.437 20.0056 114.447 20.7373C114.48 23.0784 114.459 25.4195 114.459 27.7606C114.459 30.1569 114.46 32.5549 114.457 34.9513C114.456 35.4586 114.47 35.9008 115.181 35.8924C117.49 35.8672 119.805 35.9594 122.109 35.8488C125.748 35.673 127.841 33.3905 127.865 29.7433C127.872 28.5192 127.87 27.2951 127.865 26.0709ZM124.065 30.0866C123.868 31.9604 122.98 32.8011 121.099 32.8715C120.35 32.8982 119.597 32.8446 118.848 32.8865C118.324 32.9166 118.132 32.7877 118.15 32.2167C118.195 30.7413 118.166 29.2661 118.166 27.7891C118.166 26.3405 118.194 24.892 118.15 23.4452C118.135 22.9059 118.308 22.7754 118.805 22.8189C119.852 22.9077 120.915 22.6832 121.956 22.9612C123.219 23.2995 123.875 24.0447 124.036 25.3458C124.232 26.925 124.232 28.5058 124.065 30.0866Z" fill="#011627"/>
<path d="M91.1915 21.7114C90.3608 19.4807 90.7993 19.8124 88.3981 19.7822C88.1479 19.7822 87.8985 19.7822 87.6475 19.7822C86.2429 19.7822 86.2471 19.7839 85.7615 21.0967C84.6988 23.9753 83.6303 26.8523 82.5654 29.7309C81.9518 31.3904 81.3333 33.0483 80.7297 34.7112C80.3871 35.659 80.5391 35.9018 81.5038 35.8817C84.5568 35.813 83.7022 36.4394 84.8821 33.6093C84.8929 33.5842 84.911 33.559 84.916 33.5339C84.9961 33.0048 85.2884 32.849 85.8251 32.8624C87.4089 32.901 88.9951 32.9244 90.5763 32.8557C91.3286 32.8223 91.682 33.0466 91.9355 33.7617C92.6968 35.9002 92.7282 35.8884 94.9816 35.8868C96.2425 35.8868 96.3812 35.6992 95.9535 34.5421C94.3697 30.2635 92.7852 25.9866 91.1915 21.7114ZM86.0464 29.8298C86.8102 27.7063 87.5558 25.6382 88.3601 23.4043C89.1553 25.6265 89.8976 27.7013 90.6622 29.8298C89.1024 29.8298 87.6211 29.8298 86.0464 29.8298Z" fill="#011627"/>
<path d="M54.2597 46.6331C55.0304 45.9884 55.2595 45.1829 54.8783 44.2485C54.477 43.2689 53.6228 43.083 52.6899 43.0796C51.8557 43.0763 51.0198 43.0981 50.1872 43.0712C49.7208 43.0562 49.5419 43.227 49.5436 43.6975C49.557 45.7874 49.557 47.8757 49.5436 49.9655C49.5402 50.4361 49.7275 50.6103 50.1889 50.6002C51.0498 50.5801 51.9142 50.6119 52.7752 50.5901C53.7799 50.5634 54.6325 50.2519 55.0387 49.2187C55.4099 48.2708 55.1776 47.4871 54.2597 46.6331ZM50.6921 44.1564C50.7021 43.9354 50.9261 43.9588 51.0867 43.9638C51.7236 43.989 52.3606 44.004 52.9958 44.0543C53.5292 44.0961 53.8651 44.3842 53.912 44.9435C53.9622 45.5429 53.7448 45.9482 53.1346 46.1458C52.6933 46.2898 52.2552 46.2278 51.8741 46.2563C51.5363 46.2563 51.2588 46.258 50.9813 46.2547C50.8442 46.253 50.6754 46.2614 50.6721 46.0704C50.667 45.4341 50.6637 44.7944 50.6921 44.1564ZM54.0591 48.5455C54.0006 49.1885 53.6211 49.5469 52.9925 49.6105C52.6364 49.6457 52.272 49.6172 51.9126 49.6172C50.662 49.6474 50.662 49.6474 50.662 48.383C50.662 47.0953 50.662 47.0953 51.966 47.0953C52.3823 47.0953 52.7935 47.0903 53.2015 47.2175C53.8685 47.4218 54.1193 47.884 54.0591 48.5455Z" fill="#011627"/>
<path d="M133.465 46.9121C133.185 46.6693 133.275 46.5688 133.481 46.3595C134.072 45.7583 134.142 45.0232 133.849 44.2762C133.545 43.4993 132.887 43.1376 132.086 43.1024C131.117 43.0605 130.142 43.1091 129.171 43.0689C128.636 43.0471 128.51 43.2665 128.524 43.7538C128.552 44.7536 128.532 45.7566 128.532 46.758C128.532 47.8432 128.539 48.9283 128.529 50.0118C128.526 50.3718 128.603 50.6029 129.027 50.5962C130.053 50.5811 131.085 50.633 132.108 50.5593C132.949 50.4991 133.659 50.1022 133.981 49.2565C134.315 48.3774 134.208 47.5518 133.465 46.9121ZM131.2 43.9631C131.448 43.9748 131.693 44.0201 131.941 44.0485C132.514 44.1138 132.852 44.4186 132.887 45.0081C132.92 45.5758 132.667 45.9425 132.119 46.1367C131.683 46.2908 131.244 46.2423 130.804 46.259C130.639 46.259 130.468 46.2372 130.306 46.2623C129.731 46.3528 129.559 46.1351 129.567 45.5439C129.592 43.8861 129.564 43.8828 131.2 43.9631ZM133.034 48.4694C132.986 49.1259 132.612 49.5378 131.941 49.6115C131.613 49.6467 131.279 49.6182 130.948 49.6182C129.58 49.6483 129.58 49.6483 129.58 48.24C129.58 47.0929 129.58 47.0896 130.698 47.0946C131.192 47.0963 131.687 47.0561 132.175 47.2202C132.787 47.4245 133.081 47.8482 133.034 48.4694Z" fill="#011627"/>
<path d="M169.702 44.958C168.277 44.603 167.05 45.2359 166.615 46.5304C166.433 47.073 166.435 47.6272 166.461 48.1816C166.567 50.3301 168.677 51.4169 170.497 50.248C170.873 50.0068 171.493 49.6536 171.179 49.193C170.912 48.8012 170.361 49.1026 169.955 49.4408C169.128 50.1292 168.086 49.8779 167.678 48.9502C167.439 48.4076 167.453 48.051 168.209 48.1347C168.593 48.1782 168.986 48.143 169.375 48.1414C169.877 48.1414 170.377 48.1414 170.878 48.1414C171.181 48.1414 171.4 48.0795 171.45 47.6976C171.599 46.5706 170.753 45.2193 169.702 44.958ZM169.759 47.3912C169.489 47.3509 169.208 47.3845 168.932 47.3845C168.74 47.3845 168.543 47.4063 168.354 47.3794C168.073 47.3392 167.655 47.5603 167.543 47.2036C167.455 46.9189 167.607 46.5589 167.816 46.2826C168.168 45.817 168.643 45.6714 169.201 45.7484C169.753 45.8237 170.089 46.1805 170.27 46.666C170.434 47.1098 170.436 47.4933 169.759 47.3912Z" fill="#011627"/>
<path d="M103.438 44.918C101.716 44.9163 100.928 45.8122 100.928 47.7732C100.928 49.7592 101.701 50.6518 103.42 50.6534C105.108 50.6534 105.968 49.6922 105.973 47.7949C105.979 45.9009 105.115 44.9197 103.438 44.918ZM103.263 49.781C103.207 49.7759 103.15 49.7793 103.097 49.7693C102.203 49.6102 101.805 48.6858 101.975 47.1569C102.074 46.2744 102.684 45.715 103.508 45.7536C104.454 45.7988 104.859 46.3882 104.861 47.7313C104.862 49.2602 104.389 49.8681 103.263 49.781Z" fill="#011627"/>
<path d="M69.3898 44.9181C67.4272 44.8477 66.5712 45.6917 66.5696 47.703C66.5696 47.8972 66.5645 48.0914 66.5712 48.2857C66.6097 49.6455 67.3921 50.528 68.6543 50.6419C70.2508 50.7841 71.2438 50.1663 71.508 48.7713C71.6568 47.9842 71.6768 47.1688 71.3993 46.3884C71.0784 45.4908 70.3361 44.9532 69.3898 44.9181ZM68.8548 49.7811C67.8987 49.6823 67.4088 48.7177 67.5827 47.2776C67.7097 46.2276 68.3634 45.6398 69.2745 45.7554C70.1071 45.8609 70.5718 46.5843 70.5752 47.7766C70.5785 49.1715 69.9566 49.8949 68.8548 49.7811Z" fill="#011627"/>
<path d="M61.3754 44.9232C59.7621 44.7859 58.8025 45.3218 58.4849 46.6397C58.296 47.4201 58.2826 48.2356 58.5216 49.021C58.8409 50.0776 59.4862 50.5801 60.5646 50.6521C62.4821 50.7777 63.3966 49.8499 63.3815 47.7767C63.3815 47.5273 63.4033 47.2744 63.3782 47.0283C63.2528 45.8745 62.427 45.012 61.3754 44.9232ZM62.0391 49.2404C61.6931 49.7277 61.2032 49.8398 60.6482 49.7795C60.0965 49.7192 59.7421 49.3944 59.5598 48.8903C59.4278 48.527 59.3526 48.1435 59.3877 47.7986C59.3976 46.4237 59.9561 45.7187 60.9574 45.7539C61.3988 45.7689 61.7582 45.9431 62.0191 46.2981C62.5055 46.9595 62.5105 48.5722 62.0391 49.2404Z" fill="#011627"/>
<path d="M98.0129 43.1512C97.8147 43.2683 97.6719 43.5078 97.5439 43.7155C96.9634 44.6582 96.397 45.6094 95.7545 46.6728C95.1146 45.6077 94.5176 44.6415 93.9479 43.6585C93.677 43.1913 93.2617 42.848 92.8108 43.1427C92.3327 43.4542 92.886 43.8159 93.0412 44.1106C94.0329 45.9879 95.6373 47.6323 95.1848 50.042C95.1196 50.3921 95.3384 50.5946 95.7347 50.5997C96.1897 50.6047 96.3482 50.377 96.2814 49.9768C96.0072 48.3206 96.6455 46.9541 97.567 45.6479C97.9815 45.0601 98.3027 44.4087 98.6652 43.7841C98.7726 43.5982 98.9798 43.3956 98.7825 43.1913C98.5686 42.972 98.2425 43.0155 98.0129 43.1512Z" fill="#011627"/>
<path d="M141.853 44.9602C141.415 44.9685 141.387 45.2365 141.39 45.5764C141.398 46.4673 141.429 47.3616 141.375 48.2508C141.316 49.2622 140.738 49.8015 139.861 49.7746C139.014 49.7479 138.577 49.2254 138.558 48.1837C138.543 47.3197 138.541 46.4556 138.561 45.5915C138.571 45.1896 138.474 44.9535 138.018 44.9602C137.583 44.9685 137.544 45.2264 137.548 45.5697C137.56 46.5175 137.562 47.4654 137.549 48.4132C137.54 49.2505 137.791 49.994 138.541 50.3925C139.339 50.8145 140.202 50.8246 140.989 50.3005C141.241 50.133 141.338 50.0426 141.473 50.416C141.574 50.694 141.912 50.6236 142.145 50.5684C142.421 50.503 142.396 50.2435 142.396 50.0191C142.395 49.2672 142.396 48.5136 142.396 47.7617C142.396 47.0367 142.38 46.3116 142.403 45.5881C142.415 45.1779 142.304 44.9518 141.853 44.9602Z" fill="#011627"/>
<path d="M113.688 44.9617C113.168 44.9433 113.115 45.2614 113.118 45.6666C113.129 46.5559 113.152 47.4485 113.111 48.336C113.068 49.2637 112.48 49.8012 111.631 49.7761C110.799 49.751 110.352 49.2503 110.333 48.279C110.316 47.3898 110.318 46.499 110.334 45.6098C110.342 45.2179 110.256 44.9633 109.8 44.9633C109.392 44.9633 109.275 45.1844 109.28 45.5444C109.298 46.6011 109.249 47.6611 109.337 48.7111C109.49 50.5783 111.008 50.9383 112.436 50.4978C112.754 50.3991 113.026 49.8532 113.408 50.533C113.528 50.749 114.175 50.7021 114.172 50.0759C114.167 49.3256 114.17 48.5738 114.17 47.8235C114.17 47.1001 114.162 46.3767 114.173 45.6533C114.18 45.2916 114.172 44.9784 113.688 44.9617Z" fill="#011627"/>
<path d="M163.101 47.0464C163.083 45.3886 161.755 44.5027 160.003 45.0603C159.67 45.1658 159.394 45.6364 158.963 45.0436C158.757 44.7622 158.212 44.9246 158.212 45.5108C158.212 46.2627 158.212 47.0145 158.212 47.7664C158.212 48.5183 158.214 49.2703 158.211 50.0222C158.209 50.3738 158.298 50.6082 158.725 50.5982C159.127 50.5881 159.257 50.4073 159.25 50.0288C159.237 49.1932 159.241 48.3576 159.249 47.522C159.259 46.4168 159.81 45.7536 160.701 45.7586C161.554 45.7636 162.083 46.4083 162.096 47.4868C162.106 48.3224 162.104 49.158 162.094 49.9937C162.089 50.3403 162.137 50.5848 162.574 50.5999C163.055 50.6166 163.112 50.3587 163.106 49.9702C163.093 48.9973 163.111 48.021 163.101 47.0464Z" fill="#011627"/>
<path d="M77.7584 47.4631C77.307 47.3325 76.8506 47.2236 76.3959 47.1047C76.0298 47.0093 75.799 46.7648 75.8426 46.3914C75.891 45.9861 76.1903 45.7802 76.5948 45.7466C77.0763 45.7082 77.5377 45.7383 77.8938 46.1352C78.168 46.4416 78.586 46.5889 78.84 46.2942C79.146 45.9376 78.7514 45.6261 78.4789 45.4084C77.6899 44.7787 76.7904 44.7787 75.8793 45.0651C75.1704 45.2895 74.7742 45.8103 74.7759 46.5571C74.7776 47.299 75.2507 47.716 75.9094 47.932C76.4076 48.0961 76.9175 48.2217 77.4223 48.3673C77.8219 48.483 78.1747 48.6588 78.0961 49.1611C78.0209 49.635 77.6397 49.7506 77.2352 49.7942C76.6651 49.8561 76.12 49.8176 75.7104 49.3336C75.4296 49.0021 74.9899 48.9585 74.7542 49.2047C74.4131 49.563 74.8462 49.8527 75.0885 50.0771C75.6068 50.5594 76.2588 50.685 76.9493 50.6583C77.1148 50.6465 77.282 50.6381 77.4474 50.6213C78.4372 50.5159 79.1192 49.9415 79.2078 49.1394C79.2897 48.3958 78.7381 47.7494 77.7584 47.4631Z" fill="#011627"/>
<path d="M185.139 47.512C184.64 47.3545 184.121 47.2507 183.623 47.0899C183.272 46.976 183.073 46.7232 183.135 46.3246C183.192 45.9579 183.473 45.8173 183.777 45.7637C184.354 45.6615 184.873 45.7837 185.295 46.2359C185.532 46.4921 185.888 46.5256 186.121 46.3196C186.456 46.0232 186.097 45.7502 185.924 45.5477C185.361 44.8912 183.914 44.6802 183.049 45.0955C182.419 45.3986 182.065 45.8691 182.09 46.6076C182.116 47.3361 182.535 47.7163 183.163 47.9222C183.687 48.0947 184.227 48.2203 184.754 48.3827C185.111 48.4932 185.442 48.6757 185.385 49.1229C185.327 49.5834 184.981 49.7425 184.558 49.7927C183.921 49.8664 183.354 49.7827 182.893 49.2635C182.642 48.9822 182.238 48.9839 182.012 49.235C181.803 49.4678 182.042 49.7626 182.238 49.9602C182.781 50.5077 183.46 50.697 184.215 50.6651C184.436 50.6467 184.66 50.6384 184.878 50.6066C185.788 50.4726 186.405 49.9116 186.472 49.1648C186.542 48.366 186.113 47.8167 185.139 47.512Z" fill="#011627"/>
<path d="M149.143 47.596C148.62 47.4219 148.083 47.2829 147.551 47.1339C147.169 47.0267 146.864 46.8291 146.908 46.3904C146.955 45.9181 147.319 45.7858 147.739 45.7389C148.279 45.6803 148.7 45.8746 149.09 46.2414C149.354 46.4908 149.737 46.5494 149.974 46.2464C150.185 45.975 149.887 45.7356 149.702 45.548C149.227 45.0658 148.641 44.8514 148.021 44.9167C147.85 44.9167 147.739 44.9134 147.627 44.9167C146.686 44.9519 145.997 45.4911 145.884 46.2782C145.756 47.1557 146.151 47.6882 147.186 48.008C147.66 48.1554 148.144 48.2743 148.622 48.41C148.983 48.5121 149.232 48.7448 149.175 49.13C149.124 49.4867 148.853 49.7127 148.493 49.768C147.843 49.8684 147.214 49.8567 146.727 49.3059C146.465 49.0077 146.055 48.9709 145.835 49.192C145.534 49.4934 145.848 49.8099 146.094 50.0292C146.983 50.8197 148.034 50.7761 149.078 50.4981C149.77 50.3139 150.22 49.8467 150.245 49.058C150.276 48.2609 149.839 47.8272 149.143 47.596Z" fill="#011627"/>
<path d="M177.84 47.5875C177.315 47.415 176.78 47.2726 176.248 47.1253C175.861 47.0181 175.569 46.8104 175.629 46.37C175.695 45.9011 176.055 45.7722 176.479 45.7404C176.947 45.7052 177.354 45.804 177.695 46.1507C177.97 46.4287 178.37 46.6079 178.636 46.2796C178.935 45.9095 178.519 45.6382 178.264 45.4138C177.804 45.0069 177.251 44.8545 176.716 44.9199C175.456 44.9199 174.705 45.4323 174.595 46.3198C174.478 47.2643 174.988 47.8018 176.264 48.1015C176.639 48.1903 177.006 48.3176 177.377 48.4248C177.708 48.5219 177.918 48.7413 177.899 49.0846C177.876 49.4596 177.614 49.7025 177.264 49.7628C176.656 49.8649 176.031 49.9135 175.551 49.3977C175.244 49.0662 174.789 48.9137 174.538 49.2152C174.222 49.5936 174.658 49.9285 174.957 50.1512C175.837 50.8043 176.823 50.7792 177.815 50.4896C178.515 50.2853 178.951 49.8197 178.968 49.0443C178.985 48.2522 178.534 47.8152 177.84 47.5875Z" fill="#011627"/>
<path d="M84.9251 49.6505C84.1712 49.7108 83.9532 49.267 83.9433 48.629C83.9334 48.0177 83.992 47.4014 83.9284 46.797C83.8516 46.0802 84.0589 45.7738 84.8095 45.9027C85.1455 45.9596 85.4981 45.9412 85.4899 45.4322C85.4833 44.9951 85.1893 44.913 84.8681 44.9733C84.0019 45.1341 83.8178 44.7121 83.9367 43.9719C83.9639 43.8095 83.9317 43.6387 83.9416 43.4729C83.9656 43.1263 83.8178 42.9604 83.4652 42.9571C83.0829 42.9537 82.9037 43.1179 82.9334 43.5114C82.9508 43.7325 82.9268 43.9568 82.9392 44.1779C82.9607 44.6317 83.0209 45.0839 82.3052 44.9783C81.9942 44.9332 81.8839 45.1709 81.889 45.4656C81.8939 45.7755 82.036 45.9596 82.3453 45.9061C82.9252 45.8056 82.9772 46.1187 82.9425 46.5692C82.9136 46.9276 82.9376 47.2909 82.9376 47.6526C82.9376 48.0143 82.9301 48.3744 82.9392 48.7361C82.9673 50.0808 83.556 50.6318 84.9168 50.5982C85.2529 50.5899 85.6104 50.6435 85.6121 50.1277C85.6154 49.6119 85.2661 49.6236 84.9251 49.6505Z" fill="#011627"/>
<path d="M120.442 44.9615C120.047 44.9514 119.67 45.0185 119.319 45.1959C119.099 45.3081 118.918 45.5693 118.722 45.1223C118.624 44.8978 118.289 44.9113 118.043 45.0117C117.791 45.1156 117.797 45.3533 117.796 45.5778C117.794 46.2995 117.796 47.0212 117.796 47.7413C117.796 48.4631 117.796 49.1848 117.796 49.9049C117.796 49.9333 117.797 49.9601 117.796 49.9886C117.782 50.3855 117.92 50.6165 118.371 50.5981C118.797 50.5814 118.854 50.3336 118.849 49.9886C118.838 49.24 118.846 48.4898 118.846 47.7413C118.846 46.2995 119.058 46.0467 120.461 45.931C120.8 45.9026 120.976 45.8072 120.972 45.4505C120.969 45.0921 120.765 44.9699 120.442 44.9615Z" fill="#011627"/>
<path d="M154.043 44.9629C153.697 44.9596 153.538 45.1405 153.538 45.472C153.536 46.996 153.536 48.5198 153.538 50.0453C153.538 50.4054 153.672 50.6131 154.08 50.5996C154.493 50.5862 154.584 50.3686 154.578 50.0085C154.564 49.2599 154.574 48.5114 154.574 47.7629C154.574 47.0144 154.561 46.2658 154.579 45.5189C154.589 45.1237 154.414 44.9663 154.043 44.9629Z" fill="#011627"/>
<path d="M154.014 42.9171C153.615 42.8451 153.43 43.0192 153.417 43.453C153.406 43.947 153.662 44.0458 154.09 44.0541C154.548 44.0609 154.633 43.8297 154.646 43.4395C154.662 42.9757 154.439 42.8551 154.014 42.9171Z" fill="#011627"/>
<path d="M190.843 3.27255C186.765 3.25246 183.473 6.52126 183.456 10.6039C183.44 14.7116 186.678 17.9905 190.755 17.9972C194.861 18.0039 198.156 14.7569 198.172 10.6927C198.185 6.64016 194.878 3.29265 190.843 3.27255ZM190.729 17.4965C186.935 17.468 183.923 14.4119 183.954 10.6224C183.987 6.78417 187.048 3.75148 190.869 3.77326C194.631 3.79503 197.705 6.95163 197.671 10.7597C197.637 14.4974 194.519 17.525 190.729 17.4965Z" fill="#011627" stroke="#011627" stroke-width="0.5"/>
<path d="M193.005 12.4952C192.795 12.1435 192.742 11.9259 193.15 11.6144C193.933 11.0148 194.098 10.1625 193.847 9.21465C193.604 8.2987 192.951 7.85657 192.098 7.62715C191.389 7.43624 190.662 7.50825 189.941 7.49653C189.58 7.49653 189.214 7.53169 188.856 7.48983C188.114 7.40276 187.82 7.63552 187.848 8.44605C187.91 10.2546 187.9 12.0699 187.852 13.8801C187.831 14.6186 188.052 14.8563 188.792 14.8162C189.871 14.7576 189.874 14.8045 189.874 13.7193C189.874 13.4413 189.858 13.16 189.879 12.8837C189.898 12.666 189.734 12.3244 190.138 12.3026C190.45 12.2842 190.814 12.1703 190.995 12.6041C191.132 12.9356 191.377 13.232 191.466 13.572C191.755 14.6889 192.496 14.9216 193.535 14.8178C194.166 14.7559 194.168 14.5432 193.905 14.0927C193.596 13.5635 193.32 13.0176 193.005 12.4952ZM190.563 10.6866C189.724 10.8022 189.915 10.2429 189.858 9.76562C189.769 9.02712 190.2 9.02876 190.64 9.08072C191.3 9.06394 191.861 9.13095 191.835 9.91461C191.809 10.7905 191.12 10.6096 190.563 10.6866Z" fill="#011627"/>
</g>
<defs>
<linearGradient id="paint0_linear_59_20052" x1="53.2608" y1="39.8436" x2="5.9297" y2="19.7715" gradientUnits="userSpaceOnUse">
<stop stop-color="#0049E7"/>
<stop offset="0.53" stop-color="#9D15F8"/>
<stop offset="1" stop-color="#FF4CF9"/>
</linearGradient>
<linearGradient id="paint1_linear_59_20052" x1="1.03653" y1="20.9955" x2="14.5411" y2="40.9432" gradientUnits="userSpaceOnUse">
<stop stop-color="white"/>
<stop offset="1"/>
</linearGradient>
<linearGradient id="paint2_linear_59_20052" x1="12.054" y1="36.5243" x2="7.55801" y2="51.6695" gradientUnits="userSpaceOnUse">
<stop stop-color="white"/>
<stop offset="1"/>
</linearGradient>
<linearGradient id="paint3_linear_59_20052" x1="37.4767" y1="37.9842" x2="20.0713" y2="47.0876" gradientUnits="userSpaceOnUse">
<stop stop-color="white"/>
<stop offset="1"/>
</linearGradient>
<linearGradient id="paint4_linear_59_20052" x1="43.0543" y1="40.9514" x2="17.7519" y2="41.9978" gradientUnits="userSpaceOnUse">
<stop stop-color="white"/>
<stop offset="1"/>
</linearGradient>
<linearGradient id="paint5_linear_59_20052" x1="-1.75463" y1="47.0608" x2="17.1827" y2="6.13979" gradientUnits="userSpaceOnUse">
<stop stop-color="#FF057E"/>
<stop offset="1" stop-color="#FFCC00"/>
</linearGradient>
<linearGradient id="paint6_linear_59_20052" x1="4.61272" y1="-6.60319" x2="4.43328" y2="8.71081" gradientUnits="userSpaceOnUse">
<stop stop-color="white"/>
<stop offset="1"/>
</linearGradient>
<linearGradient id="paint7_linear_59_20052" x1="18.8542" y1="-11.1967" x2="1.93028" y2="13.0974" gradientUnits="userSpaceOnUse">
<stop stop-color="white"/>
<stop offset="1"/>
</linearGradient>
<linearGradient id="paint8_linear_59_20052" x1="14.6435" y1="52.7036" x2="8.54632" y2="21.0195" gradientUnits="userSpaceOnUse">
<stop stop-color="white"/>
<stop offset="1"/>
</linearGradient>
<linearGradient id="paint9_linear_59_20052" x1="3.82314" y1="46.0161" x2="12.4107" y2="24.9434" gradientUnits="userSpaceOnUse">
<stop stop-color="white"/>
<stop offset="1"/>
</linearGradient>
<linearGradient id="paint10_linear_59_20052" x1="15.2271" y1="-3.00997" x2="37.0954" y2="57.7018" gradientUnits="userSpaceOnUse">
<stop stop-color="#0463EF"/>
<stop offset="0.54" stop-color="#27CBC0"/>
<stop offset="1" stop-color="#5EFAF7"/>
</linearGradient>
<linearGradient id="paint11_linear_59_20052" x1="-10.2463" y1="24.7571" x2="27.5206" y2="20.1835" gradientUnits="userSpaceOnUse">
<stop stop-color="white"/>
<stop offset="1"/>
</linearGradient>
<linearGradient id="paint12_linear_59_20052" x1="-8.6969" y1="-24.5694" x2="24.5429" y2="23.0803" gradientUnits="userSpaceOnUse">
<stop stop-color="white"/>
<stop offset="1"/>
</linearGradient>
<linearGradient id="paint13_linear_59_20052" x1="14.7218" y1="65.0223" x2="33.9684" y2="40.1119" gradientUnits="userSpaceOnUse">
<stop stop-color="white"/>
<stop offset="1"/>
</linearGradient>
<linearGradient id="paint14_linear_59_20052" x1="29.0539" y1="40.9971" x2="36.8633" y2="43.6527" gradientUnits="userSpaceOnUse">
<stop stop-color="white"/>
<stop offset="1"/>
</linearGradient>
<clipPath id="clip0_59_20052">
<rect width="199" height="54" fill="white"/>
</clipPath>
</defs>
</svg>
