<svg xmlns="http://www.w3.org/2000/svg" viewBox="0 0 100 100"> <g fill="none" class="nc-icon-wrapper"> <path d="M85.987 60.81a7.133 7.133 0 0 0-5.704-7.028l-3.678-5.902c-1.943-3.124-5.487-5.064-9.247-5.064h-5.945a21.526 21.526 0 0 0-.705-5.965 4.35 4.35 0 0 0 2.073-5.776l-.897-1.902a4.34 4.34 0 0 0-5.133-2.315 13.22 13.22 0 0 0-5.124-5.989 12.907 12.907 0 0 0-5.056-1.883c-.176-.03-.381-.034-.567-.055A7.18 7.18 0 1 0 33.23 25.19a13.16 13.16 0 0 0-1.87 5.203c-.081.583-.122 1.17-.12 1.76a13.082 13.082 0 0 0 1.45 6.013 4.36 4.36 0 0 0-1.71 4.81c-3.15.516-5.956 2.363-7.56 5.093l-3.837 6.45c-.312.095-.627.18-.936.284A6.764 6.764 0 0 0 16.33 66.32a4.783 4.783 0 0 0-2.317 4.087v4.798c0 1.367.582 2.668 1.6 3.58l1.598-1.79a2.404 2.404 0 0 1-.799-1.79v-4.798a2.402 2.402 0 0 1 2.4-2.4h62.376a2.402 2.402 0 0 1 2.4 2.4v4.798a2.402 2.402 0 0 1-2.4 2.4H38.005v2.398H81.19a4.803 4.803 0 0 0 4.799-4.798v-4.798a4.782 4.782 0 0 0-2.453-4.16 7.228 7.228 0 0 0 2.453-5.437zM74.57 49.147l2.86 4.591-12.608 1.093-4.505-3.38a1.196 1.196 0 0 0-.72-.24h-.543a12.765 12.765 0 0 0 2.033-4.874c.07-.362.127-.739.175-1.123h6.096c2.938 0 5.701 1.506 7.212 3.933zM59.712 30.192l.9 1.908c.4.858.124 1.878-.653 2.417-.084-.218-.15-.45-.241-.66l-2.012-4.761a1.938 1.938 0 0 1 2.006 1.096zm-5.117-2.297l2.917 6.905c.247.571.461 1.157.64 1.754.751 2.382 1.031 4.888.824 7.377-.043.66-.126 1.317-.247 1.967a10.422 10.422 0 0 1-2.026 4.508c-.232.288-.487.559-.762.808l-10.66.105a19.26 19.26 0 0 1-6.016-5.91 17.174 17.174 0 0 1-.938-1.595l-3.458-6.641a10.708 10.708 0 0 1-1.225-4.95l.868.312.813-2.256-1.407-.507c.165-.74.407-1.462.724-2.152l2.698 1.8 1.331-1.997-2.806-1.87a10.795 10.795 0 0 1 2.985-2.711l1.692 3.599 2.172-1.022-1.692-3.6a10.632 10.632 0 0 1 3.838-.57l-.82 3.283 2.326.58.886-3.545c.784.2 1.542.489 2.26.861l-.513 1.422 2.256.813.311-.863a10.832 10.832 0 0 1 3.03 4.095zM33.807 40.327l2.394 4.597c.116.218.225.417.33.607a1.929 1.929 0 0 1-2.262-1.056l-.898-1.89a1.97 1.97 0 0 1 .436-2.258zm5.398-23.902a4.794 4.794 0 0 1 4.179 2.465 13.192 13.192 0 0 0-8.588 4.19 4.765 4.765 0 0 1 4.409-6.655zM25.485 49.29c1.347-2.294 3.795-3.78 6.503-4.024l.11.231a4.328 4.328 0 0 0 5.746 2.105l.033-.015.008-.004a21.722 21.722 0 0 0 3.816 4.095l-15.86 1.586c-1.002.1-1.998.257-2.987.449l2.63-4.423zm-6.079 7.788c2.165-.72 4.403-1.2 6.674-1.427l20.322-2.038h12.796l2.161 1.621-13.927 1.988a1.203 1.203 0 0 0-.245.062l-22.591 8.323H20.79a4.377 4.377 0 0 1-1.384-8.53zm59.504 8.53h-2.466l-27.538-2.442a1.136 1.136 0 0 0-.492.06l-7.008 2.382h-9.874l16.365-6.03L63.43 57.36l15.24-1.35h.226c.17 0 .338.01.505.03 2.387.263 4.186 2.313 4.186 4.77 0 2.645-2.099 4.797-4.678 4.797z" fill="currentColor"/> <path d="M38.8 40.9l1.505 1.869a10.516 10.516 0 0 1 4.46-2.098l-.48-2.35a12.924 12.924 0 0 0-5.484 2.578z" fill="currentColor"/> <path d="M50.683 44.71a6.817 6.817 0 0 1-2.723.648l-.197.005.056 2.399.196-.005a9.246 9.246 0 0 0 5.683-2.147l-1.54-1.84c-.449.376-.945.692-1.475.94z" fill="currentColor"/> <path d="M43.858 37.48l.679-2.3c-3.39-1-6.799.609-8.105 3.828l2.223.902c.846-2.085 2.983-3.082 5.203-2.43z" fill="currentColor"/> <path d="M46.897 34.07l2.204.945c.91-2.124 3.041-3.132 5.19-2.457l.722-2.287c-3.311-1.048-6.725.55-8.116 3.799z" fill="currentColor"/> <path d="M45.472 36.88l2.172-1.022 3.131 6.653-2.172 1.023-3.131-6.653z" fill="currentColor"/> <path d="M51.042 37.882a10.526 10.526 0 0 1 4.462-2.099l-.483-2.35a12.927 12.927 0 0 0-5.483 2.579l1.504 1.87z" fill="currentColor"/> <path d="M35.065 75.32a3.821 3.821 0 0 0-2.413-1.711 5.487 5.487 0 0 0-1.797-.113 3.696 3.696 0 0 0-1.815-2.56c-1.778-1.03-4.097-.499-5.168 1.186-.297.466-.512.98-.637 1.518a3.842 3.842 0 0 0-3.057.803l-.038.03a3.527 3.527 0 0 0-1.318 2.494 3.487 3.487 0 0 0 .922 2.632l.128.14c.362.394.784.73 1.251.993a3.524 3.524 0 0 0-.051 3.035 3.913 3.913 0 0 0 4.937 1.968 5.224 5.224 0 0 0 1.493-.887 3.912 3.912 0 0 0 3.047 1.142 3.744 3.744 0 0 0 2.623-1.314c.625-.734.925-1.69.83-2.65a4.966 4.966 0 0 0-.44-1.609 3.577 3.577 0 0 0 1.947-2.394c.22-.924.06-1.898-.444-2.703zm-2.953.627c.377.08.706.31.913.636.167.261.221.579.151.881-.13.543-.661.919-1.27.935a5.45 5.45 0 0 0-3.029-1.06c.555-1.094 1.89-1.704 3.235-1.392zm-6.215-2.538c.383-.603 1.272-.785 1.941-.398.317.175.548.473.64.823.039.161.042.33.008.492a4.968 4.968 0 0 0-1.97 2.43 2.689 2.689 0 0 1-.932-1.447 2.434 2.434 0 0 1 .313-1.9zm-4.683 3.736a1.15 1.15 0 0 1 .439-.81l.038-.03a1.463 1.463 0 0 1 1.652-.112 5.086 5.086 0 0 0 1.79 2.53 2.962 2.962 0 0 1-3.49-.602l-.128-.14a1.111 1.111 0 0 1-.3-.836zM25.14 83.5c-.717.278-1.578-.051-1.881-.72a1.136 1.136 0 0 1 .31-1.354 5.373 5.373 0 0 0 3.2-.883c.122.5.084 1.025-.11 1.5a2.639 2.639 0 0 1-1.52 1.457zm6.2-.373c-.242.28-.588.45-.959.47a1.481 1.481 0 0 1-1.437-.817 4.803 4.803 0 0 0 .097-3.023c1.344.16 2.446 1.188 2.573 2.5.031.316-.067.63-.273.87z" fill="currentColor"/> </g> </svg>